<svg width="32" height="32" fill="none" xmlns="http://www.w3.org/2000/svg"><path d="M22.167 14.667v.5H27.5V27.5h-9.667v-5.333h-3.666V27.5H4.5V9.833h5.333V4.5h12.334v10.167zM9.333 25.833h.5v-3.666H6.167v3.666h3.166zm0-5.333h.5v-3.667H6.167V20.5h3.166zm0-5.333h.5V11.5H6.167v3.667h3.166zm5.334 5.333h.5v-3.667H11.5V20.5h3.167zm0-5.333h.5V11.5H11.5v3.667h3.167zm0-5.334h.5V6.167H11.5v3.666h3.167zM20 20.5h.5v-3.667h-3.667V20.5H20zm0-5.333h.5V11.5h-3.667v3.667H20zm0-5.334h.5V6.167h-3.667v3.666H20zm5.333 16h.5v-3.666h-3.666v3.666h3.166zm0-5.333h.5v-3.667h-3.666V20.5h3.166z" fill="#072F54" stroke="#072F54"/></svg>