<svg width="32" height="32" fill="none" xmlns="http://www.w3.org/2000/svg"><path d="M22.667 5.333H9.334V4h13.333v1.333zm0 22.667H9.334v-1.333h13.333V28zm0-26.667H9.334A2.675 2.675 0 006.667 4v24c0 1.467 1.2 2.667 2.667 2.667h13.333c1.467 0 2.667-1.2 2.667-2.667V4c0-1.467-1.2-2.667-2.667-2.667zM9.334 8h13.333v16H9.334V8zm12 6.667v-2.48c0-.84-.6-1.52-1.334-1.52h-8c-.733 0-1.333.68-1.333 1.52V14.8c.733 0 1.333.6 1.333 1.333 0 .734-.6 1.334-1.333 1.334v2.346c0 .84.6 1.52 1.333 1.52h8c.734 0 1.334-.68 1.334-1.52v-2.48C20.6 17.333 20 16.733 20 16s.6-1.333 1.334-1.333zm-4.667 4.666h-1.333V18h1.333v1.333zm0-2.666h-1.333v-1.334h1.333v1.334zm0-2.667h-1.333v-1.333h1.333V14z" fill="#989898"/></svg>