<svg width="32" height="32" fill="none" xmlns="http://www.w3.org/2000/svg"><path d="M17.333 4v1.333h-2.667V4h2.667zM16 13.48l7.173 2.36 3.187 1.04-1.494 5.293a5.878 5.878 0 01-1.52-1.253l-2.013-2.307-2.013 2.294c-.454.533-1.707 1.76-3.32 1.76-1.614 0-2.867-1.227-3.32-1.76l-2.014-2.294-2.013 2.294c-.267.306-.8.84-1.52 1.24l-1.507-5.28 3.2-1.054L16 13.48zm4-12.147h-8v4H8A2.675 2.675 0 005.333 8v6.16l-1.72.56a1.342 1.342 0 00-.88 1.707l2.533 8.906h.067c2.133 0 4.027-1.173 5.333-2.666 1.307 1.493 3.2 2.666 5.333 2.666 2.134 0 4.027-1.173 5.334-2.666 1.307 1.493 3.2 2.666 5.333 2.666h.067l2.52-8.906c.107-.347.08-.72-.08-1.04a1.33 1.33 0 00-.8-.667l-1.707-.56V8c0-1.467-1.2-2.667-2.666-2.667h-4v-4zM8 13.293V8h16v5.293l-8-2.626-8 2.626zM21.333 26.24c-1.627 1.133-3.48 1.707-5.333 1.707-1.854 0-3.707-.574-5.334-1.707C9.04 27.373 7.186 28 5.333 28H2.666v2.667h2.667c1.84 0 3.653-.467 5.333-1.32A11.782 11.782 0 0016 30.64c1.827 0 3.654-.427 5.334-1.293 1.68.866 3.493 1.32 5.333 1.32h2.667V28h-2.667c-1.853 0-3.707-.627-5.333-1.76z" fill="#989898"/></svg>