<svg width="32" height="32" fill="none" xmlns="http://www.w3.org/2000/svg"><path d="M25.227 8.013a1.992 1.992 0 00-1.894-1.346H8.667c-.88 0-1.614.56-1.894 1.346L4 16v10.667C4 27.4 4.6 28 5.333 28h1.334C7.4 28 8 27.4 8 26.667v-1.334h16v1.334C24 27.4 24.6 28 25.333 28h1.334C27.4 28 28 27.4 28 26.667V16l-2.773-7.987zM9.133 9.333h13.72l1.387 4H7.747l1.386-4zm16.2 13.334H6.667V16h18.666v6.667z" fill="#989898"/><path d="M10 21.333a2 2 0 100-4 2 2 0 000 4zm12 0a2 2 0 100-4 2 2 0 000 4z" fill="#989898"/></svg>