<svg width="32" height="32" fill="none" xmlns="http://www.w3.org/2000/svg"><path d="M27.426 14.213c-.186-.533-.693-.88-1.293-.88h-9.587c-.613 0-1.106.347-1.306.88l-1.907 5.48.013 7.347c0 .507.414.96.92.96h.827c.507 0 .907-.507.907-1.013v-1.654h10.666v1.654c0 .506.414 1.013.92 1.013h.814c.506 0 .92-.453.92-.96l.013-1.827v-5.52l-1.907-5.48zm-10.88.454h9.587l1.373 4H15.173l1.373-4zm-.546 8c-.734 0-1.334-.6-1.334-1.334 0-.733.6-1.333 1.334-1.333.733 0 1.333.6 1.333 1.333 0 .734-.6 1.334-1.333 1.334zm10.666 0c-.733 0-1.333-.6-1.333-1.334 0-.733.6-1.333 1.333-1.333.734 0 1.334.6 1.334 1.333 0 .734-.6 1.334-1.334 1.334z" fill="#989898"/><path d="M18.666 12H20V4H9.333v6.667H2.666V28H4V12h6.666V5.333h8V12z" fill="#989898"/><path d="M9.333 14.667H6.666v2.666h2.667v-2.666zm6.667-8h-2.667v2.666H16V6.667zM9.333 20H6.666v2.667h2.667V20zm0 5.333H6.666V28h2.667v-2.667z" fill="#989898"/></svg>