<svg width="234" height="72" fill="none" xmlns="http://www.w3.org/2000/svg"><path opacity=".6" d="M52.16 32.579l181.43 38.89-162.81-48.05-18.62 9.16zm25.32 11.66c9.88 1.22 19.7 2.74 29.51 4.36 4.9.78 9.79 1.67 14.69 2.51l14.66 2.67 14.63 2.83c4.87 1 9.75 2 14.61 3 9.72 2.06 19.43 4.21 29.07 6.66-9.88-1.22-19.7-2.73-29.51-4.36-4.9-.78-9.79-1.67-14.69-2.5l-14.68-2.68-14.63-2.84c-4.87-1-9.75-1.94-14.61-3-9.7-2.05-19.4-4.21-29.05-6.65zm68.71-3.12a469.083 469.083 0 0118.8 5c6.24 1.75 12.44 3.62 18.63 5.5 6.19 1.88 12.36 3.88 18.5 5.93 6.14 2.05 12.27 4.19 18.34 6.47a481.977 481.977 0 01-18.8-5c-6.23-1.76-12.43-3.62-18.63-5.51a698.38 698.38 0 01-18.5-5.94c-6.14-2.06-12.26-4.17-18.34-6.45z" fill="#ECF2FF"/><path d="M47.57 34.029c.35-.4 5.21-3.8 5.58-4l-.83-.14s-4.45 3.69-4.75 4.14z" fill="#FFC727"/><path opacity=".5" d="M47.57 34.029c.35-.4 5.21-3.8 5.58-4l-.83-.14s-4.45 3.69-4.75 4.14z" fill="#fff"/><path d="M47.56 34.029c0 .09.37.16.75.21a3.64 3.64 0 001 0c.11-.08 3.61-1.83 5.76-2.9h.09l.3-.15.88-.44.35-.17-3.61-.62c-.21.14-1.85 1.29-3.3 2.34l-.15.1-.4.29c-.88.64-1.6 1.18-1.73 1.32l.06.02z" fill="#FFC727"/><path opacity=".1" d="M47.56 34.029c0 .09.37.16.75.21a3.64 3.64 0 001 0c.11-.08 3.71-1.88 5.85-2.94-.36.17-5 2.39-5.91 1.33-.88.64-1.6 1.18-1.73 1.32l.04.08z" fill="#000"/><path d="M0 38.029c0 .48 2.66.64 3 .53.34-.11 29.38-11.53 29.38-11.53l-10.61-4.22-.3.21-.14.09c-2 1.36-7.83 5.43-13 9l-.3.21-.41.28c-3.55 2.49-6.63 4.66-7.62 5.43z" fill="#FFC727"/><path d="M0 38.029c2.6-2 19.51-13.69 21.77-15.22l-1.35-.54s-19.7 15-20.29 15.58a.23.23 0 00-.13.18z" fill="#FFC727"/><path opacity=".5" d="M0 38.029c2.6-2 19.51-13.69 21.77-15.22l-1.35-.54s-19.7 15-20.29 15.58a.23.23 0 00-.13.18z" fill="#fff"/><g opacity=".5"><path opacity=".1" d="M0 38.029c0 .48 2.66.64 3 .53.34-.11 29.38-11.53 29.38-11.53l-10.61-4.22s2.64 3-3.61 7.65c-4.27 3.15-8.8 3.81-10.49 2.15-3.6 2.48-6.68 4.65-7.67 5.42z" fill="#000"/></g><path d="M24.15 30.759c.82.4 1.72.72 1.78-.11 0-.34-.24-.7-1.56-1.34-.31-.15-1.07-.48-1.29.21-.22.69.76 1.09 1.07 1.24z" fill="#FFC727"/><path opacity=".1" d="M24.15 30.759c.82.4 1.72.72 1.78-.11 0-.34-.24-.7-1.56-1.34-.31-.15-1.07-.48-1.29.21-.22.69.76 1.09 1.07 1.24z" fill="#000"/><path d="M17.43 33.509c.82.4 1.72.72 1.78-.11 0-.34-.23-.7-1.56-1.34-.31-.15-1.07-.48-1.29.21-.22.69.76 1.09 1.07 1.24z" fill="#FFC727"/><path opacity=".1" d="M17.43 33.509c.82.4 1.72.72 1.78-.11 0-.34-.23-.7-1.56-1.34-.31-.15-1.07-.48-1.29.21-.22.69.76 1.09 1.07 1.24z" fill="#000"/><path d="M10.71 36.259c.83.4 1.72.71 1.79-.11 0-.34-.24-.7-1.56-1.34-.32-.15-1.07-.48-1.3.21-.23.69.76 1.09 1.07 1.24z" fill="#FFC727"/><path opacity=".1" d="M10.71 36.259c.83.4 1.72.71 1.79-.11 0-.34-.24-.7-1.56-1.34-.32-.15-1.07-.48-1.3.21-.23.69.76 1.09 1.07 1.24z" fill="#000"/><path d="M12.91 29.03c.81 1.44 2.64 2 3.81 2.42 3.09 1.24 5.33 1.93 6.43-.88a3.85 3.85 0 00.25-1c.18-2.12-2-3.17-3.12-3.76-1.34-.71-2.29-1.17-3-1.46a5.488 5.488 0 00-2.2-.57c-.62 0-2 .14-2.49 2.72a3.71 3.71 0 00.32 2.53z" fill="#FFC727"/><path d="M12.87 27.029c0 1.57 1 2.85 2.2 2.85 1.2 0 2.2-1.28 2.2-2.85s-1-2.86-2.2-2.86c-1.2 0-2.2 1.28-2.2 2.86z" fill="#263238"/><path d="M13.13 27.029a2.001 2.001 0 101.94-2.52 2.29 2.29 0 00-1.94 2.52z" fill="#455A64"/><path d="M59 26.269l.51.19 1.15.41 4-1.71c3.85-1.65 8.4-3.59 9.28-3.89h-.42l-.31.1-.31.1-.87.29-.3.1-.28.09h-.15l-.48.16-.31.11-4.09 1.37-.39.13-1.52.52-2.62.88-.37.13-1.15.39-.29.1h-.21l-.87.53z" fill="#FFC727"/><path opacity=".5" d="M59 26.269l.51.19 1.15.41 4-1.71c3.85-1.65 8.4-3.59 9.28-3.89h-.42l-.31.1-.31.1-.87.29-.3.1-.28.09h-.15l-.48.16-.31.11-4.09 1.37-.39.13-1.52.52-2.62.88-.37.13-1.15.39-.29.1h-.21l-.87.53z" fill="#fff"/><path d="M60.66 26.869l3.11 1.16s6.88-3.18 11-5.18h.05l1.18-.58a10.16 10.16 0 001.71-.94 8.87 8.87 0 00-3.69 0h-.06c-.85.29-5.13 2.11-8.89 3.72h-.09l-.3.13-4.02 1.69z" fill="#FFC727"/><path opacity=".1" d="M60.66 26.869l3.11 1.16s6.88-3.18 11-5.18c-.68.29-7.63 3.35-9.34 2.92a1 1 0 01-.73-.57l-4.04 1.67z" fill="#000"/><path d="M52.77 22.489l7.47 3.59s-.08-6.4-.14-11v-4.27c0-1.85-.23-2.23-.72-1.93a23.883 23.883 0 00-3.33 3.05c-.53.69-1.72 4.89-2.5 7.78a.629.629 0 010 .07c0 .17-.09.33-.13.49l-.65 2.22z" fill="#FFC727"/><path opacity=".1" d="M52.77 22.489l7.47 3.59s-.08-6.4-.14-11c-1.1 2.45-3.27 5.8-6.75 5.19l-.58 2.22z" fill="#000"/><path d="M65.42 30.029c.77-1.92-2.49-3.66-6.2-5.33s-40.21-17.8-45.45-19.23c-5.24-1.43-11.5.56-12.54 3.56-1.57 4.53 5 8.33 28.67 18.14 3.1 1.28 17 4.61 24.75 4.64 8.34.01 10.39-.87 10.77-1.78z" fill="#FFC727"/><path opacity=".5" d="M65.42 30.029c.77-1.92-2.49-3.66-6.2-5.33s-40.21-17.8-45.45-19.23c-5.24-1.43-11.5.56-12.54 3.56-1.57 4.53 5 8.33 28.67 18.14 3.1 1.28 17 4.61 24.75 4.64 8.34.01 10.39-.87 10.77-1.78z" fill="#fff"/><path opacity=".1" d="M29.9 27.159c3.1 1.28 17 4.61 24.75 4.64 8.34 0 10.39-.86 10.77-1.81.38-.95-.3-2-1.59-2.88.01.195-.024.39-.1.57-.34.86-2.21 1.66-9.77 1.63-7.07 0-17.24-5.75-20.06-6.91-21.45-8.9-29.84-9.64-28.42-13.76.62-1.79 3.22-3.17 6.29-3.55-4.76-.57-9.63 1.27-10.54 3.93-1.57 4.53 5.02 8.33 28.67 18.14z" fill="#000"/><path d="M53.85 23.66l-.84-.37v1.24l.84.36v-1.23zm-1.53-.661l-.9-.39v1.23l.9.39v-1.23zm-1.59-.69l-.89-.39v1.23l.89.39v-1.23zm-1.59-.69l-.89-.39v1.24l.89.38v-1.23zm-1.58-.69l-.9-.38v1.23l.9.39v-1.24zm-1.59-.68l-.9-.39v1.23l.9.39v-1.23zm-1.59-.69l-.89-.39v1.24l.89.38v-1.23zm-1.58-.69l-.9-.39v1.24l.9.39v-1.24zm-1.59-.68l-.9-.39v1.23l.9.39v-1.23zm-1.59-.69l-.9-.39v1.23l.9.39v-1.23zm-1.59-.69l-.89-.39v1.24l.89.39v-1.24zm-1.58-.69l-.9-.38v1.23l.9.39v-1.24zm-1.59-.68l-.9-.39v1.23l.9.39v-1.23zm-1.59-.69l-.89-.39v1.24l.89.38v-1.23zm-1.59-.69l-.89-.39v1.24l.89.39v-1.24zm-1.58-.68l-.9-.39v1.23l.9.39v-1.23zm-1.59-.69l-.9-.39v1.23l.9.39v-1.23zm-1.59-.69l-.89-.39v1.24l.89.39v-1.24zm-1.59-.69l-.89-.38v1.23l.89.39v-1.24zm-1.58-.68l-.9-.39v1.23l.9.39v-1.23zm-1.59-.69l-.9-.39v1.24l.9.38v-1.23zm-2.48-1.07v1.23l.89.39v-1.24l-.89-.38zm-1.59-.69v1.23l.9.39v-1.23l-.9-.39zm-1.59-.69v1.24l.9.38v-1.23l-.9-.39zm-1.59-.69v1.24l.9.39v-1.24l-.9-.39zm-4.14-.5a4.49 4.49 0 00-1.67-.78v.83l1.67-.05zm-3.62-.97v1.13c.42 0 .84-.06 1.26-.08v-1a6.65 6.65 0 00-1.26-.05zm-3.99 1.6c.35 0 .67-.07 1-.11.33-.04.63-.09 1-.12s.9-.12 1.35-.17v-1.13a6.37 6.37 0 00-1.59.44 5.859 5.859 0 00-.9.46 2.47 2.47 0 00-.42.3 3.09 3.09 0 00-.44.33z" fill="#455A64"/><path d="M31.68 17.029l10.52 5s16.73-9 28.73-15.51c6.4-3.5 11.29-6.21 11.21-6.32-.2-.27-3.42-.24-4.69-.06a2.19 2.19 0 00-.37.06c-.54.15-19.46 7.16-32.71 12.07l-12.69 4.76z" fill="#FFC727"/><path opacity=".1" d="M31.68 17.029l10.52 5s16.73-9 28.73-15.51c-.94.47-22.45 11.31-25.26 9.69-1.07-.62-1.34-2.2-1.27-4l-12.72 4.82z" fill="#000"/><path d="M30.15 16.289l3.12 1.5c8-3.35 41.24-16.5 44-17.6h.15a2.19 2.19 0 00-.37.06c-.77.17-46.9 16.04-46.9 16.04z" fill="#FFC727"/><path opacity=".5" d="M30.15 16.289l3.12 1.5c8-3.35 41.24-16.5 44-17.6h.15a2.19 2.19 0 00-.37.06c-.77.17-46.9 16.04-46.9 16.04z" fill="#fff"/><path d="M52.68 16.529c1 .5 2.15.89 2.23-.14 0-.43-.3-.88-2-1.68-.39-.18-1.34-.6-1.62.26s1 1.37 1.39 1.56z" fill="#FFC727"/><path opacity=".1" d="M52.68 16.529c1 .5 2.15.89 2.23-.14 0-.43-.3-.88-2-1.68-.39-.18-1.34-.6-1.62.26s1 1.37 1.39 1.56z" fill="#000"/><path d="M61.58 12.029c1 .5 2.15.89 2.23-.14 0-.42-.29-.88-1.95-1.67-.39-.19-1.33-.6-1.61.25s.95 1.37 1.33 1.56z" fill="#FFC727"/><path opacity=".1" d="M61.58 12.029c1 .5 2.15.89 2.23-.14 0-.42-.29-.88-1.95-1.67-.39-.19-1.33-.6-1.61.25s.95 1.37 1.33 1.56z" fill="#000"/><path d="M70.51 7.479c1 .47 2 .83 2.08-.13 0-.4-.27-.82-1.82-1.56-.36-.17-1.24-.56-1.5.24s.88 1.28 1.24 1.45z" fill="#FFC727"/><path opacity=".1" d="M70.51 7.479c1 .47 2 .83 2.08-.13 0-.4-.27-.82-1.82-1.56-.36-.17-1.24-.56-1.5.24s.88 1.28 1.24 1.45z" fill="#000"/><path d="M39.4 15.509c.81 1.44 2.64 2 3.81 2.42 3.09 1.24 5.33 1.93 6.43-.87a3.83 3.83 0 00.25-1c.18-2.11-2-3.17-3.13-3.76-1.34-.71-2.29-1.16-3-1.46a5.492 5.492 0 00-2.2-.57c-.62 0-2 .14-2.49 2.73a3.63 3.63 0 00.33 2.51z" fill="#FFC727"/><path d="M41.56 16.349c1.215 0 2.2-1.276 2.2-2.85s-.985-2.85-2.2-2.85c-1.215 0-2.2 1.276-2.2 2.85s.985 2.85 2.2 2.85z" fill="#263238"/><path d="M39.62 13.5a2 2 0 101.94-2.47 2.29 2.29 0 00-1.94 2.47z" fill="#455A64"/><path d="M72.87 21.599l.31-.1-.31.1z" fill="#FFC727"/></svg>