<svg width="54" height="54" fill="none" xmlns="http://www.w3.org/2000/svg"><path d="M43.425 38.025c.9-1.575 1.575-3.375 1.575-5.4C45 27 40.5 22.5 34.875 22.5S24.75 27 24.75 32.625s4.5 10.125 10.125 10.125c2.025 0 3.825-.675 5.4-1.575l7.2 7.2 3.15-3.15-7.2-7.2zm-8.55.225c-3.15 0-5.625-2.475-5.625-5.625S31.725 27 34.875 27s5.625 2.475 5.625 5.625-2.475 5.625-5.625 5.625zM27 45v4.5C14.58 49.5 4.5 39.42 4.5 27S14.58 4.5 27 4.5c10.89 0 19.958 7.74 22.05 18h-4.657c-1.44-5.535-5.4-10.057-10.643-12.172v.922c0 2.475-2.025 4.5-4.5 4.5h-4.5v4.5a2.257 2.257 0 01-2.25 2.25H18V27h4.5v6.75h-2.25L9.473 22.973C9.18 24.277 9 25.605 9 27c0 9.922 8.078 18 18 18z" fill="#072F54"/></svg>