<svg width="80" height="80" fill="none" xmlns="http://www.w3.org/2000/svg"><path d="M65 11.667l-5-5-5 5-5-5-5 5-5-5-5 5-5-5-5 5-5-5v46.666H10v10c0 5.534 4.467 10 10 10h40c5.533 0 10-4.466 10-10V6.667l-5 5zm-15 55H20a3.343 3.343 0 01-3.333-3.334V60H50v6.667zm13.333-3.334c0 1.834-1.5 3.334-3.333 3.334a3.343 3.343 0 01-3.333-3.334v-10h-30V16.667h36.666v46.666z" fill="#072F54"/><path d="M50 23.334H30V30h20v-6.666zm10 0h-6.666V30H60v-6.666zm-10 10H30V40h20v-6.666zm10 0h-6.666V40H60v-6.666z" fill="#072F54"/></svg>