<svg width="400" height="400" fill="none" xmlns="http://www.w3.org/2000/svg"><path d="M216.952 140.48c-44.112-8.12-133.184-58.328-143.256 26.872-6.6 55.848 75.8 124.56 124.288 133.888 54.552 10.496 114.12-22.872 129.28-77.896 8.08-29.32-.456-65.744-29.712-80.648-25.744-13.096-53.96 2.68-80.6-2.216z" fill="#407BFF"/><path opacity=".9" d="M216.952 140.48c-44.112-8.12-133.184-58.328-143.256 26.872-6.6 55.848 75.8 124.56 124.288 133.888 54.552 10.496 114.12-22.872 129.28-77.896 8.08-29.32-.456-65.744-29.712-80.648-25.744-13.096-53.96 2.68-80.6-2.216z" fill="#fff"/><path d="M200 342.048c85.666 0 155.112-4.054 155.112-9.056 0-5.001-69.446-9.056-155.112-9.056s-155.112 4.055-155.112 9.056c0 5.002 69.446 9.056 155.112 9.056z" fill="#F5F5F5"/><path d="M274.752 218.52a.276.276 0 01-.184-.064.3.3 0 01-.048-.416c5.712-7.288 5.184-15.552 4.52-26.008-.232-3.648-.472-7.424-.496-11.584-.04-7.2 2.816-18.84 5.6-30.112 3.456-14.112 7.024-28.712 4-31.912-5.368-5.712-23.592.936-33.296 7.84-7.952 5.664-14.232 4.56-25.64 2.544-2.984-.528-6.4-1.12-10.224-1.664-15.2-2.152-16.848.232-19.136 3.528-.44.632-.904 1.288-1.48 1.968a.299.299 0 01-.424 0 .314.314 0 010-.424c.515-.613.996-1.254 1.44-1.92 2.4-3.472 4.152-5.984 19.72-3.784 3.856.552 7.248 1.144 10.24 1.672 11.248 1.984 17.44 3.08 25.192-2.44 10.104-7.2 28.408-13.792 34.08-7.76 3.2 3.432-.224 17.536-3.88 32.464-2.744 11.2-5.6 22.848-5.552 29.968 0 4.144.264 7.904.496 11.544.672 10.592 1.2 18.952-4.648 26.4a.304.304 0 01-.117.119.321.321 0 01-.163.041z" fill="#263238"/><path d="M199.263 154.241a7.191 7.191 0 000-10.171 7.191 7.191 0 10-10.171 10.171 7.193 7.193 0 0010.171 0z" fill="#fff"/><path opacity=".3" d="M199.263 154.241a7.191 7.191 0 000-10.171 7.191 7.191 0 10-10.171 10.171 7.193 7.193 0 0010.171 0z" fill="#407BFF"/><path d="M198.928 131.704a9.389 9.389 0 00-11.276-6.082 9.39 9.39 0 00-6.852 10.826l3.808 19.064 20.36-5.312-6.04-18.496z" fill="#407BFF"/><path d="M202.4 133.336a5.334 5.334 0 01-9.109 3.773 5.337 5.337 0 118.705-5.816c.268.648.406 1.342.404 2.043z" fill="#263238"/><path d="M197.064 138.032a4.707 4.707 0 01-4.346-2.906 4.704 4.704 0 119.05-1.79 4.687 4.687 0 01-1.378 3.323 4.704 4.704 0 01-3.326 1.373zm0-8.6a3.904 3.904 0 100 7.809 3.904 3.904 0 000-7.809z" fill="#407BFF"/><path d="M197.064 134.136a.8.8 0 01-.128-1.592l109.24-16.712a.811.811 0 01.92.68.811.811 0 01-.68.92L197.184 134.12l-.12.016z" fill="#263238"/><path d="M261.504 322.152h-.112a.8.8 0 01-.688-.904l29.752-220.192a.801.801 0 01.896-.68.8.8 0 01.688.896l-29.744 220.184a.798.798 0 01-.792.696z" fill="#263238"/><path d="M292.048 119.304a3.246 3.246 0 01-3.881 3.185 3.245 3.245 0 01-2.368-4.428 3.25 3.25 0 015.298-1.054c.609.609.951 1.435.951 2.297z" fill="#263238"/><path d="M99.296 327.344h201.408v-41.632H99.296v41.632z" fill="#407BFF"/><path opacity=".1" d="M99.296 327.344h201.408v-41.632H99.296v41.632z" fill="#fff"/><path d="M99.296 267.408h201.408l3.056-31.288a30.775 30.775 0 00-30.632-33.768H126.872a30.784 30.784 0 00-22.796 10.098 30.788 30.788 0 00-7.836 23.67l3.056 31.288z" fill="#407BFF"/><path opacity=".3" d="M99.296 267.408h201.408l3.056-31.288a30.775 30.775 0 00-30.632-33.768H126.872a30.784 30.784 0 00-22.796 10.098 30.788 30.788 0 00-7.836 23.67l3.056 31.288z" fill="#000"/><path opacity=".9" d="M99.296 288.072h201.408v-2.36H99.296v2.36z" fill="#407BFF"/><path d="M99.296 285.712h201.408v-21.976H99.296v21.976z" fill="#407BFF"/><path opacity=".2" d="M99.296 285.712h201.408v-21.976H99.296v21.976z" fill="#000"/><path d="M303.52 229.416a20.479 20.479 0 00-20.44 21.736l4 65.512a7.572 7.572 0 007.568 7.12h17.696a7.59 7.59 0 007.576-7.12l4-65.512a20.49 20.49 0 00-5.508-15.271 20.469 20.469 0 00-14.892-6.465z" fill="#407BFF"/><path opacity=".1" d="M318.428 257.332c3.459-8.227-.407-17.701-8.635-21.159-8.227-3.459-17.701.407-21.159 8.635-3.459 8.227.407 17.701 8.635 21.159 8.227 3.459 17.701-.407 21.159-8.635z" fill="#fff"/><path d="M299.8 330.904h7.44l1.16-7.12h-9.76l1.16 7.12zm-207.432 0h7.44l1.16-7.12h-9.76l1.16 7.12z" fill="#263238"/><path d="M96.48 229.416a20.481 20.481 0 00-20.44 21.736l4 65.512a7.59 7.59 0 007.576 7.12h17.696a7.577 7.577 0 007.568-7.12l4-65.512a20.49 20.49 0 00-5.508-15.271 20.469 20.469 0 00-14.892-6.465z" fill="#407BFF"/><path opacity=".1" d="M111.373 257.323c3.459-8.228-.407-17.701-8.635-21.16-8.227-3.458-17.7.408-21.16 8.635-3.458 8.228.408 17.701 8.636 21.16 8.227 3.458 17.701-.408 21.159-8.635z" fill="#fff"/><path d="M144 182.352a214.96 214.96 0 003.528 2.128 129 129 0 003.648 2.112c2.44 1.392 4.912 2.704 7.392 4 2.48 1.296 4.984 2.4 7.496 3.432a55.085 55.085 0 007.456 2.48l-.992-.096c2.256.08 4.84.056 7.368 0l7.68-.2c5.144-.128 10.336-.264 15.52-.216l.72 5.784c-2.544.664-5.096 1.224-7.656 1.76-2.56.536-5.12 1.024-7.696 1.48-2.576.456-5.176.872-7.792 1.216-2.616.344-5.224.68-8.144.8h-.328l-.672-.112a56.238 56.238 0 01-9.36-2.4 90.93 90.93 0 01-8.624-3.448c-2.8-1.264-5.504-2.664-8.168-4.128-1.32-.736-2.64-1.488-3.936-2.28-1.296-.792-2.552-1.6-3.92-2.496l6.48-9.816z" fill="#FFC3BD"/><path d="M133.6 184.272c-1.272-5.152 5.744-5.512 25.968 3.848l-4.448 16.224S137.464 200 133.6 184.272z" fill="#407BFF"/><path opacity=".2" d="M141.72 189.08c-1.704 0-3.336 1.2-4.696 2.888 5.264 7.776 14.016 11.112 17.032 12.064h.104l.224.056c-3.096-10.584-7.984-14.928-12.664-15.008z" fill="#000"/><path d="M222.432 260.08l8.304-1.312-2.184-21.176-8.304 1.312 2.184 21.176z" fill="#FFC3BD"/><path d="M231.112 254l-9.904.144a.72.72 0 00-.68.648l-1.272 8.248a1.37 1.37 0 00.288 1.092 1.376 1.376 0 001.008.508c3.264-.112 6.728-.36 10.84-.416 2.528-.04 8.76.144 12.256.096 3.496-.048 3.776-3.904 2.328-4.232-6.488-1.464-11.336-3.544-13.488-5.6a1.957 1.957 0 00-1.376-.488zm-69.336-18s30.4-35.024 46.312-31.648c18.248 3.88 25.512 42.664 25.512 42.664l-14.128 1.6s-7.384-17.344-15.808-23.696c-17.264 27.88-61.432 48.488-66.864 19.72 7.256-2.92 24.976-8.64 24.976-8.64z" fill="#263238"/><path d="M234.968 247.264l-17.624 3.448-1.328-5.816 18.384-3.976.568 6.344z" fill="#263238"/><path d="M201.176 196.152l6.8-1.304 2.84 8.104s-6.8 2.256-10.104-2.024l.464-4.776zm14.648.328l1.752 5.872-6.76.6-2.84-8.104 7.848 1.632z" fill="#FFC3BD"/><path d="M124.552 246.72s-13.248-19.52-19.752-50.976a12.435 12.435 0 012.359-10.093 12.443 12.443 0 019.185-4.803c6.4-.336 13.152-.424 18.64-.4a12.375 12.375 0 0111.856 8.968c2.984 10.464 4.864 24.168 16.56 43.624 1.88 3.12-.424 7.16-4 7.768l-34.848 5.912z" fill="#407BFF"/><path opacity=".2" d="M104.632 191.92c4.472-6.24 8.464-7.12 9.6-6.768 10.336 3.264-.8 31.744-2.48 34.92a171.57 171.57 0 01-6.952-24.416 12.106 12.106 0 01-.168-3.736zm52.08 57.232c-.28 1.016.512 4.32 5.328 8.064 6.536-1.784 13.6-5.336 20.248-10.048-9.752-2.752-23.616-5.096-25.576 1.984z" fill="#000"/><path d="M116.264 160.8c2.08 5.664 4.744 15.896 1.52 20a20.185 20.185 0 0014.4 4.904c6.64-.216 5.288-2.872 3.112-5.224-6.456-1.096-7.12-6.536-6.816-11.064l-12.216-8.616z" fill="#FFC3BD"/><path opacity=".2" d="M121.24 164.296l7.2 5.088a19.427 19.427 0 000 3.2c-2.448.848-6.44-1.408-7.136-3.952a14.724 14.724 0 01-.064-4.336z" fill="#000"/><path d="M129.6 154.576c1.296 2.48 3.744 3.752 5.472 2.856 1.728-.896 2.072-3.64.8-6.12s-3.744-3.752-5.472-2.848c-1.728.904-2.112 3.64-.8 6.112z" fill="#407BFF"/><path d="M127.904 155.456c1.376 2.632 4 4 5.816 3.032 1.816-.968 2.2-3.872.8-6.504-1.4-2.632-4-4-5.816-3.032-1.816.968-2.176 3.848-.8 6.504z" fill="#fff"/><path d="M129.928 153.184l3.288-.96s-2.216-3.608-2.024-6.544c.192-2.936.752-5.192-4.96-5.064-5.712.128-8.888 5.784 3.696 12.568z" fill="#263238"/><path d="M111.728 158.192c4 6.616 5.984 10.68 11.344 12.552a9.973 9.973 0 0010.193-1.916 9.976 9.976 0 002.983-9.932c-1.696-6.808-7.936-16.488-16.2-16.056-8.264.432-12.304 8.736-8.32 15.352z" fill="#FFC3BD"/><path d="M111.064 151.952c6.256-.992 16.992-4.752 15.608-12.216-.936-5.016-8.752-3.472-10.4-.936a31.777 31.777 0 01-9.528 8.536c-3.808 2.128-5.016 6.104 4.32 4.616z" fill="#263238"/><path d="M114.176 163.376l3.144-1.36s-2.656-3.304-2.832-6.24c-.176-2.936.088-5.248-5.552-4.4-5.64.848-8.088 6.888 5.24 12z" fill="#263238"/><path d="M113.336 160.104a.38.38 0 01-.28-.12c-4.296-4.224-4.96-8.32-4.968-10.4 0-1.936.528-3.68 1.4-4.56a.396.396 0 01.284-.118.407.407 0 01.284.118.4.4 0 010 .56 5.878 5.878 0 00-1.168 4c0 1.936.64 5.792 4.728 9.816a.396.396 0 01.118.284.396.396 0 01-.118.284.373.373 0 01-.28.136z" fill="#407BFF"/><path d="M111.904 166.528a6.968 6.968 0 004.992 1.12c2.288-.384 2.4-2.6.8-4.192-1.376-1.44-4.232-2.96-6.096-1.76-1.864 1.2-1.488 3.608.304 4.832z" fill="#FFC3BD"/><path d="M117.224 161.48c1.872 2.312 2.088 5.24.48 6.544-1.608 1.304-4.424.488-6.296-1.824-1.872-2.312-2.088-5.232-.48-6.536 1.608-1.304 4.432-.464 6.296 1.816z" fill="#fff"/><path d="M115.752 162.68c1.76 2.168 1.96 4.92.448 6.144-1.512 1.224-4.16.464-5.92-1.712-1.76-2.176-1.96-4.92-.448-6.144 1.512-1.224 4.16-.464 5.92 1.712z" fill="#407BFF"/><path d="M120.864 156.32h-.6a3.123 3.123 0 011.104-1.968 1.363 1.363 0 011.152-.344 1.206 1.206 0 01.8.656l-.536.28a.616.616 0 00-.4-.352.802.802 0 00-.656.232 2.628 2.628 0 00-.864 1.496zm6.984-4.256a.998.998 0 010-.872 1.312 1.312 0 01.888-.632 1.809 1.809 0 011.728.456l-.416.432a1.19 1.19 0 00-1.16-.304.706.706 0 00-.504.32.437.437 0 000 .376l-.536.224z" fill="#263238"/><path d="M126.6 153.688s2.968 2.608 5.2 3.496c-.528 1.384-2.456 1.752-2.456 1.752l-2.744-5.248z" fill="#ED847E"/><path d="M127.736 162.688a5.526 5.526 0 01-4.168-.336.17.17 0 01-.085-.11.17.17 0 01.021-.138.177.177 0 01.256-.056 5.3 5.3 0 004.576 0 .193.193 0 01.248.088.182.182 0 01.011.137.17.17 0 01-.091.103 5.615 5.615 0 01-.768.312zm-9.912-7.784a.516.516 0 01-.192 0 .38.38 0 01-.137-.051.352.352 0 01-.106-.101.378.378 0 01-.061-.28 3.468 3.468 0 012.016-2.592.392.392 0 01.496.2.354.354 0 01-.2.472 2.765 2.765 0 00-1.6 2.072.36.36 0 01-.216.28zM130.44 149a.387.387 0 01-.352 0 3.078 3.078 0 00-2.712-.128.383.383 0 01-.512-.144.35.35 0 01-.043-.272.348.348 0 01.171-.216 3.854 3.854 0 013.424.12.36.36 0 01.19.207.348.348 0 01-.022.281.331.331 0 01-.144.152z" fill="#263238"/><path d="M220.392 330.536l7.104-4.32-10.032-19.048-7.104 4.32 10.032 19.048z" fill="#FFC3BD"/><path d="M224.608 320.312l-8.272 4.136a.676.676 0 00-.272.848l2.648 7.872a1.365 1.365 0 001.232 1.023c.19.013.381-.014.56-.079 2.632-1.384 4.472-2.544 7.824-4.216 2.064-1.032 8.424-3.888 11.272-5.312 2.848-1.424 1.36-4.976 0-4.696-5.984 1.248-10.968 1.336-13.6.376a1.741 1.741 0 00-1.392.048zm-69.24-78.816s15.456 2.128 37.968 16.904c15.592 10.24 29.2 52.264 29.2 52.264l-12.192 8.328s-15.496-33.736-28.472-46.192c-42.64-10.152-55.2 3.12-57.32-26.072 7.536-2.096 30.816-5.232 30.816-5.232z" fill="#263238"/><path d="M225.464 312.512l-16.056 8.056-2.84-5.248 16.648-8.76 2.248 5.952z" fill="#263238"/><path d="M115.456 195.064c-1.56 5.048-3.2 10.256-4.568 15.352a146.18 146.18 0 00-1.888 7.6 56.386 56.386 0 00-.648 3.632 19.325 19.325 0 00-.248 3v.288c0-.072-.072-.176-.12-.264a5.932 5.932 0 00-.24-.408c-.288-.384-.352-.368-.344-.352.088.094.185.179.288.256a18.825 18.825 0 002.792 1.6c2.216 1.072 4.672 2.104 7.152 3.064 4.968 1.952 10.136 3.76 15.2 5.672l-1.28 5.688a133.775 133.775 0 01-16.6-2.792 76.15 76.15 0 01-8.368-2.4 27.14 27.14 0 01-4.56-2.064c-.477-.29-.936-.608-1.376-.952a8.602 8.602 0 01-1.752-1.848 7.467 7.467 0 01-.496-.848 8.915 8.915 0 01-.224-.504l-.104-.272c-.144-.376-.232-.696-.328-1.024-.14-.561-.244-1.13-.312-1.704a26.215 26.215 0 01-.064-5.224c.12-1.6.312-3.048.528-4.504.44-2.92 1.04-5.712 1.68-8.48a164.83 164.83 0 014.752-16.24l11.128 3.728z" fill="#FFC3BD"/><path d="M113.448 181.352c-1.6.432-8.856 1.52-14.008 19.256l17.432 6.8s12.072-30.2-3.424-26.056z" fill="#407BFF"/><path d="M132.632 234.32l6.12 3.048-5.6 6.76s-6.4-4.112-5.232-7.592l2.32-1.936a2.211 2.211 0 012.392-.28z" fill="#FFC3BD"/><path d="M144.28 243.52l-6.112 4.992-5.048-4.384 5.632-6.76 5.528 6.152z" fill="#FFC3BD"/></svg>