<svg width="400" height="400" fill="none" xmlns="http://www.w3.org/2000/svg"><path d="M337.16 117.072c-7.264-23.68-25.008-43.2-45.936-56.424C277.552 52 262.128 45.6 245.992 44.336c-16.136-1.264-33.04 2.96-45.416 13.4-17.536 14.792-24.848 40.472-45.12 51.2-17.808 9.464-40.256 4.32-58.928 11.864-15.6 6.264-26.68 20.728-33.056 36.28-8.864 21.6-9.6 47.296 1.6 67.792 11.2 20.496 48.528 42.848 90.928 47.256h58.488c34.544.488 77.232-23.344 104.352-53.072 28.216-30.944 28.448-68.96 18.32-101.984z" fill="#ECF2FF"/><path d="M123.862 294.509l-34.142-.345-.3 29.558 34.143.346.299-29.559z" fill="#072F54"/><path d="M109.897 294.368l-28.647-.29-.3 29.558 28.647.29.3-29.558z" fill="#3362CC"/><path d="M92.536 294.192c.096.072-2.4 3.328-5.6 7.272-3.2 3.944-5.84 7.072-5.936 7-.096-.072 2.4-3.328 5.6-7.264 3.2-3.936 5.848-7.08 5.936-7.008zm8.176.112c.096.064-4.272 5.968-9.752 13.176s-9.992 12.992-10.088 12.928c-.096-.064 4.28-5.968 9.752-13.184 5.472-7.216 10-12.992 10.088-12.92zm8.424.096c.088.072-4.8 6.704-11 14.816-6.2 8.112-11.2 14.632-11.328 14.56-.128-.072 4.8-6.704 11-14.816 6.2-8.112 11.232-14.664 11.328-14.56zm8.12.048c.088.064-4.736 6.688-10.776 14.792s-11.008 14.608-11.104 14.544c-.096-.064 4.728-6.696 10.776-14.792s11.008-14.592 11.104-14.544zm6.384 2.912c.096.072-4.36 6.08-9.944 13.432-5.584 7.352-10.184 13.248-10.272 13.208-.088-.04 4.36-6.08 9.944-13.432 5.584-7.352 10.184-13.28 10.272-13.208zm-.112 11.76c.088.072-2.52 3.48-5.832 7.616-3.312 4.136-6.072 7.432-6.16 7.36-.088-.072 2.52-3.48 5.832-7.616 3.312-4.136 6.072-7.432 6.16-7.36z" fill="#FAFAFA"/><path opacity=".3" d="M123.869 294.509l-13.975-.141-.3 29.558 13.976.142.299-29.559z" fill="#000"/><path d="M94.777 294.223l-2.24-.023-.3 29.559 2.24.022.3-29.558zm22.468.219l-1.807-.018-.3 29.558 1.808.019.299-29.559z" fill="#263238"/><path d="M123.719 308.692l-42.613-.431-.013 1.192 42.614.431.012-1.192zm-22.991-14.124a1.884 1.884 0 01-.08-.44 10.939 10.939 0 01-.048-1.28 10.884 10.884 0 011.168-4.552c.231-.471.499-.923.8-1.352a3.669 3.669 0 011.224-1.256.956.956 0 011.016.104c.259.242.421.568.456.92a5.048 5.048 0 01-.232 1.96 9.886 9.886 0 01-1.92 3.688 9.693 9.693 0 01-1.6 1.536 1.473 1.473 0 01-1.2.344 2.711 2.711 0 01-1.032-.624l-3.376-2.848c-1.064-.904-2.216-1.848-2.656-3.2a2.4 2.4 0 01-.12-1.04 1.17 1.17 0 011.552-1.056c.304.082.593.212.856.384a12.15 12.15 0 012.4 2.28 12.433 12.433 0 012.16 4.176c.119.41.215.827.288 1.248.02.146.02.294 0 .44 0 0-.136-.6-.48-1.64a13.093 13.093 0 00-2.24-4 11.847 11.847 0 00-2.311-2.168c-.448-.288-1.073-.528-1.497-.24-.424.288-.44.968-.24 1.536.392 1.192 1.48 2.104 2.552 3.008l3.368 2.824c.247.244.545.43.872.544a1.05 1.05 0 00.856-.272 8.79 8.79 0 001.528-1.464 9.456 9.456 0 001.864-3.528c.197-.579.281-1.19.248-1.8a1.071 1.071 0 00-.32-.696.594.594 0 00-.648-.072 3.48 3.48 0 00-1.104 1.128c-.295.417-.562.852-.8 1.304a11.365 11.365 0 00-1.256 4.424c-.088 1.064.024 1.68-.048 1.68z" fill="#263238"/><path d="M121.332 323.851l-54.24-.543-.47 46.952 54.24.543.47-46.952z" fill="#072F54"/><path d="M98.608 370.576l-45.496-.304.472-47.112 45.504.464-.48 46.952z" fill="#3362CC"/><path d="M71.52 323.344c.088.072-3.944 5.208-9.008 11.464-5.064 6.256-9.24 11.28-9.328 11.2-.088-.08 3.944-5.208 9.008-11.472 5.064-6.264 9.24-11.264 9.328-11.192zm12.984.168c.096.072-6.888 9.408-15.592 20.856-8.704 11.448-15.832 20.68-15.92 20.616-.088-.064 6.888-9.408 15.592-20.864 8.704-11.456 15.832-20.68 15.92-20.608zm13.376.096c.088.072-7.776 10.576-17.56 23.456-9.784 12.88-17.808 23.28-17.896 23.2-.088-.08 7.768-10.568 17.6-23.456s17.768-23.264 17.856-23.2zm12.896.136c.096.064-7.608 10.552-17.2 23.424C83.984 360.04 76.12 370.4 76 370.344c-.12-.056 7.608-10.552 17.208-23.424 9.6-12.872 17.48-23.248 17.568-23.176zm10.152 4.624c.096.072-7.024 9.6-15.896 21.264S88.896 370.712 88.8 370.64c-.096-.072 7.024-9.6 15.896-21.264s16.144-21.072 16.232-21.008zm-.176 18.68c.088.072-4.104 5.456-9.36 12-5.256 6.544-9.6 11.84-9.688 11.768-.088-.072 4.096-5.456 9.36-12 5.264-6.544 9.592-11.84 9.688-11.768z" fill="#FAFAFA"/><path opacity=".3" d="M121.285 323.849l-22.2-.225-.474 46.95 22.199.224.475-46.949z" fill="#3362CC"/><path d="M75.075 323.381l-3.552-.036-.475 46.95 3.552.036.475-46.95zm35.706.361l-2.88-.029-.475 46.95 2.88.029.475-46.95z" fill="#263238"/><path d="M121.051 346.376l-67.693-.686-.019 1.896 67.693.685.019-1.895zM82.136 322.64l.192-.256c.128-.176.312-.432.536-.8.456-.696.984-1.808 1.728-3.2.407-.789.912-1.523 1.504-2.184a4.868 4.868 0 012.712-1.6 3.91 3.91 0 011.792.104c.64.173 1.204.556 1.6 1.088.393.579.55 1.285.44 1.976a4.113 4.113 0 01-.848 1.944 9.502 9.502 0 01-3.768 2.4 13.199 13.199 0 01-4.664 1.384 5.599 5.599 0 01-2.56-.464 4.231 4.231 0 01-1.96-1.856 6.274 6.274 0 01-.616-2.696c.012-1.905.33-3.796.944-5.6a4.104 4.104 0 011.888-2.32c.5-.228 1.062-.29 1.6-.176a3.126 3.126 0 011.408.728 4.089 4.089 0 011.256 2.848 8.09 8.09 0 01-2.176 5.832 7.593 7.593 0 01-5.896 2.608 7.138 7.138 0 01-5.496-3.2 6.4 6.4 0 01-1.096-3.016 4.567 4.567 0 01.744-3.08 2.21 2.21 0 011.4-.912 2.121 2.121 0 011.6.36 5.669 5.669 0 011.784 2.48c.38.909.674 1.852.88 2.816.23.966.171 1.979-.168 2.912a3.442 3.442 0 01-2.088 1.936 6.624 6.624 0 01-2.752.256 16.863 16.863 0 01-2.608-.488c-.8-.208-1.664-.416-2.472-.656a22.132 22.132 0 01-2.336-.8 9.43 9.43 0 01-2.112-1.144 5.27 5.27 0 01-1.552-1.736 2.823 2.823 0 01-.232-2.224 3.081 3.081 0 011.368-1.6 3.917 3.917 0 011.944-.552 6.731 6.731 0 013.464 1.096 13.847 13.847 0 014.232 3.944c.71.998 1.281 2.088 1.696 3.24.15.401.268.813.352 1.232a2.944 2.944 0 01-.112-.304 14.208 14.208 0 00-6.28-7.912A6.616 6.616 0 0064 313.976a3.25 3.25 0 00-3.04 2.008 2.537 2.537 0 00.224 1.992 4.88 4.88 0 001.472 1.6 14.464 14.464 0 004.352 1.888c.8.232 1.6.432 2.456.64.84.219 1.696.374 2.56.464a6.18 6.18 0 002.592-.24 3.052 3.052 0 001.856-1.728 4.729 4.729 0 00.144-2.696c-.2-.925-.484-1.83-.848-2.704a5.273 5.273 0 00-1.648-2.296 1.692 1.692 0 00-2.4.44 4.2 4.2 0 00-.656 2.808 6.055 6.055 0 001.032 2.816 6.702 6.702 0 005.168 3.04 7.203 7.203 0 005.512-2.464 7.705 7.705 0 002.072-5.528 3.661 3.661 0 00-1.112-2.568 2.34 2.34 0 00-2.544-.488 3.665 3.665 0 00-1.688 2.096 13.985 13.985 0 00-.696 2.72c-.296 1.808-.456 3.712.328 5.264a3.83 3.83 0 001.776 1.696 5.307 5.307 0 002.4.448 13.08 13.08 0 004.552-1.336 9.171 9.171 0 003.664-2.32 3.07 3.07 0 00.424-3.584 3.198 3.198 0 00-3.104-1.12 4.743 4.743 0 00-2.608 1.52 11.392 11.392 0 00-1.512 2.128c-.8 1.392-1.312 2.504-1.792 3.2-.232.35-.5.675-.8.968z" fill="#263238"/><path d="M137.336 324.552a2.144 2.144 0 01-.512-.48 11.136 11.136 0 01-1.144-1.536A13.463 13.463 0 01134.4 320a13.1 13.1 0 01-.472-1.6 2.739 2.739 0 01-.096-.936c.01-.179.059-.354.144-.512a.722.722 0 01.48-.368.744.744 0 01.592.112c.146.097.273.219.376.36.174.255.329.522.464.8a13.834 13.834 0 011.408 4.288c.097.633.143 1.272.136 1.912.016.234-.008.47-.072.696-.072 0-.048-.992-.352-2.552a15.38 15.38 0 00-1.488-4.152 6.935 6.935 0 00-.432-.728c-.16-.224-.368-.376-.544-.328-.176.048-.288.256-.312.52-.016.27.014.54.088.8a14.407 14.407 0 001.6 4.112c.8 1.344 1.472 2.08 1.416 2.128z" fill="#E0E0E0"/><path d="M137.832 324.544a2.414 2.414 0 01-.184-.728 10.728 10.728 0 01-.16-2.032c.017-1.013.154-2.02.408-3 .148-.581.338-1.15.568-1.704.11-.319.278-.614.496-.872a1.49 1.49 0 01.448-.344.744.744 0 01.648 0 .801.801 0 01.384.504c.047.175.069.355.064.536 0 .32 0 .64-.048.952a11.138 11.138 0 01-.304 1.776 11.475 11.475 0 01-1.12 2.816 10.246 10.246 0 01-1.168 1.672c-.32.36-.52.536-.544.52-.024-.016.68-.8 1.448-2.336a12.13 12.13 0 001.016-2.768 12.32 12.32 0 00.264-1.72c0-.296 0-.608.04-.912.04-.304-.048-.592-.224-.672-.176-.08-.408.04-.592.248-.188.22-.334.472-.432.744a15.024 15.024 0 00-.576 1.648 14.01 14.01 0 00-.48 2.912c-.088 1.704.128 2.744.048 2.76z" fill="#E0E0E0"/><path d="M145.248 324.568h-13.784v45.968h13.784v-45.968z" fill="#3362CC"/><path opacity=".3" d="M145.248 324.568h-4.272v45.968h4.272v-45.968z" fill="#000"/><path d="M136.136 370.848c-.112 0-.208-10.288-.208-22.984 0-12.696.096-22.984.208-22.984.112 0 .208 10.288.208 22.984 0 12.696-.088 22.984-.208 22.984z" fill="#FAFAFA"/><path d="M144.672 345.952a54.963 54.963 0 01-6.704.208 54.95 54.95 0 01-6.704-.208 53.014 53.014 0 016.704-.208 53.02 53.02 0 016.704.208z" fill="#FAFAFA"/><path d="M382.856 370.712c0 .112-81.872.208-182.848.208-100.977 0-182.864-.096-182.864-.208 0-.112 81.856-.208 182.864-.208 101.008 0 182.848.088 182.848.208zM242.728 115.944c-1.6-1.304-4-1.6-5.216-3.248-1.36-1.824-.72-4.536-1.848-6.52-.92-1.6-2.8-2.4-4.088-3.776-1.848-1.944-2.272-4.8-2.536-7.464-.64-6.56-.848-13.24-2.792-19.544s-5.976-12.352-12.072-14.864l-22.112.8c-3.12 2.632-4.688 6.72-5.248 10.76-.56 4.04-.224 8.144-.208 12.224.016 4.08-.304 8.28-2.056 12-1.24 2.6-3.144 4.8-4.44 7.416a13.524 13.524 0 00-1.496 8.168 9.121 9.121 0 001.519 3.888 9.129 9.129 0 003.089 2.808c2.672 1.352 5.896 1.04 8.736.112 3-.984 9.416.984 11.464-1.416 1.176-1.368 3.472-3.648 5.184-5.928l20.856 38.696c1.96 3.32 7.2 3.328 10.104.8 2.904-2.528 3.888-6.64 4-10.496.112-3.856-.424-7.744.144-11.552.336-2.24 1.04-4.424 1.176-6.68.136-2.256-.408-4.752-2.16-6.184z" fill="#263238"/><path d="M237.456 118.6a4.862 4.862 0 00-.096-1.6 6.289 6.289 0 00-2.68-3.384c-.8-.544-1.664-1.056-2.584-1.704a7.328 7.328 0 01-2.448-2.648 4.173 4.173 0 01-.464-1.944c0-.704.28-1.344.336-1.984a1.597 1.597 0 00-.8-1.6c-.544-.376-1.24-.632-1.84-1.104a6.9 6.9 0 01-2.312-3.592 12.534 12.534 0 01-.448-3.944c.072-2.52.384-4.8.136-6.624a8.488 8.488 0 00-1.496-4.104 8.138 8.138 0 00-1.12-1.184c.487.268.912.636 1.248 1.08a8.37 8.37 0 011.656 4.176c.288 1.904 0 4.176 0 6.656A12.41 12.41 0 00225 98.92a6.555 6.555 0 002.2 3.4c.536.432 1.208.672 1.824 1.088.318.213.579.502.76.84.165.346.229.731.184 1.112-.072.728-.328 1.352-.344 1.968a3.711 3.711 0 00.408 1.76 7.128 7.128 0 002.304 2.536c.888.648 1.784 1.176 2.552 1.752a6.256 6.256 0 012.664 3.576c.098.403.117.822.056 1.232-.028.146-.08.286-.152.416zm-13.088-9s-.072-.048-.192-.176a4.515 4.515 0 01-.472-.584 9.626 9.626 0 01-1.248-2.48 15.174 15.174 0 01-.736-4 35.478 35.478 0 01.112-5.008c.136-1.768.264-3.448.256-4.968a18.99 18.99 0 00-.392-4 15.558 15.558 0 00-1.304-3.48c.225.241.418.51.576.8a10.16 10.16 0 011.016 2.576c.325 1.333.488 2.7.488 4.072 0 1.552-.088 3.2-.224 5.008a37.674 37.674 0 00-.144 4.96c.041 1.355.253 2.699.632 4a13.822 13.822 0 001.632 3.28z" fill="#455A64"/><path d="M168.855 221.32l12.992 133.368h13.224l2.416-131.696-28.632-1.672zm28.569 7.528l32.984 124.2 13.856-4.376-22.016-132.224-24.824 12.4z" fill="#263238"/><path d="M181.423 347l1.024 15.496s-15.416 5.112-15.504 8l30.128.224-.608-24.208-15.04.488z" fill="#2D56B3"/><path opacity=".6" d="M191.719 360.904a1.218 1.218 0 01.896 1.376 1.184 1.184 0 01-1.36.904 1.305 1.305 0 01-.936-1.464 1.225 1.225 0 011.512-.8m5.24 9.792l-.064-2.44-29.096.8a2.089 2.089 0 00-1.128 1.64h30.288z" fill="#fff"/><path d="M181.959 362.352c0 .152.744.192 1.48.648s1.144 1.056 1.28.992c.136-.064-.112-.904-1.016-1.44-.904-.536-1.784-.328-1.744-.2zm-3.119 1.4c0 .144.616.376 1.136.984.52.608.68 1.264.8 1.248.12-.016.216-.84-.44-1.6-.656-.76-1.496-.768-1.496-.632zm-1.68 3.84c.136 0 .32-.712-.088-1.512-.408-.8-1.096-1.088-1.152-.968-.056.12.376.544.696 1.2.32.656.4 1.272.544 1.28zm4.951-8.792c.072.128.736-.096 1.6-.064.864.032 1.488.272 1.6.144.112-.128-.568-.632-1.552-.656-.984-.024-1.72.456-1.648.576zm-.143-3.136a2.776 2.776 0 001.504-.048 6.863 6.863 0 001.6-.536c.294-.141.578-.305.848-.488.169-.097.32-.221.448-.368a.636.636 0 00.04-.8.801.801 0 00-.656-.312 1.902 1.902 0 00-.56.096 5.125 5.125 0 00-2.288 1.304c-.68.664-.904 1.224-.856 1.248.048.024.4-.424 1.096-.976a5.626 5.626 0 011.32-.8 6.32 6.32 0 01.856-.296c.32-.088.592-.104.672.04.08.144.04.072 0 .168a1.744 1.744 0 01-.328.272 9.2 9.2 0 01-.8.48 9.155 9.155 0 01-1.44.6c-.495.102-.982.241-1.456.416z" fill="#263238"/><path d="M182.168 355.872c.273-.44.396-.956.352-1.472a4.965 4.965 0 00-.256-1.64 4.835 4.835 0 00-.416-.904 1.234 1.234 0 00-.984-.736.705.705 0 00-.616.44 2.003 2.003 0 00-.136.56 3.266 3.266 0 000 1.016c.105.56.344 1.087.696 1.536.608.8 1.232.92 1.24.872.008-.048-.472-.344-.944-1.08a3.441 3.441 0 01-.52-1.4 2.897 2.897 0 010-.872c.04-.328.152-.584.272-.56.12.024.408.232.536.48.159.253.293.521.4.8.185.479.298.984.336 1.496.096.888-.048 1.448.04 1.464z" fill="#263238"/><path d="M243.8 346.216l3.504 18.712 7.032 14a1.955 1.955 0 01-.984 2.68 1.957 1.957 0 01-1.784-.144c-3.416-2.128-15.952-10.016-16.128-11.4-.208-1.6-5.88-19.576-5.88-19.576l14.24-4.272z" fill="#2D56B3"/><path opacity=".6" d="M253.351 381.6l-18.152-12.8.168.8a2.939 2.939 0 001.072 1.72c1.472 1.136 5.6 4.2 15.096 10.16a1.979 1.979 0 001.84.128l-.024-.008zm-15.623-19.608a1.191 1.191 0 01.64 1.448 1.138 1.138 0 01-1.424.64 1.24 1.24 0 01-.664-1.536 1.166 1.166 0 011.552-.496" fill="#fff"/><path d="M247.375 374.4a4.219 4.219 0 013.384-2.656c0-.048-.256-.144-.704-.112a3.121 3.121 0 00-2.624 2.056c-.136.392-.104.712-.056.712zm1.857 2.176c.104.064.576-.664 1.48-1.144a16.699 16.699 0 011.768-.624 2.154 2.154 0 00-1.968.256c-1.032.552-1.392 1.488-1.28 1.512zm-5.001-4.888a10.017 10.017 0 014.8-3.152 4.244 4.244 0 00-2.856.872 4.3 4.3 0 00-1.944 2.28zm-1.536-5.6c.072.104 1.008-.544 2.336-.88 1.328-.336 2.464-.232 2.48-.352a4.839 4.839 0 00-4.8 1.232h-.016zm-1.168-5.472a9.84 9.84 0 012.4-.976 9.307 9.307 0 012.608.104c0-.048-.232-.24-.712-.392a4.232 4.232 0 00-3.768.656c-.392.312-.568.576-.528.608zm2.16-2.008a1.594 1.594 0 00-.12-.712 5.197 5.197 0 00-.952-1.728 2.2 2.2 0 00-1.152-.8.792.792 0 00-.453.061.794.794 0 00-.347.299c-.15.273-.192.593-.12.896a2.753 2.753 0 002.888 2 3.205 3.205 0 002.728-2.28c.045-.154.056-.316.032-.475a1.101 1.101 0 00-.168-.445.801.801 0 00-.872-.232 2.702 2.702 0 00-1.088.896 5.61 5.61 0 00-.968 1.72 1.677 1.677 0 00-.152.704 8.803 8.803 0 011.344-2.232c.257-.326.589-.584.968-.752a.392.392 0 01.472.12.727.727 0 01.056.608 2.842 2.842 0 01-2.4 1.952 2.404 2.404 0 01-2.48-1.656.948.948 0 01.056-.64.428.428 0 01.197-.172.427.427 0 01.259-.028c.393.124.736.368.984.696a7.515 7.515 0 011.288 2.2z" fill="#263238"/><path d="M226.504 189.768l2.448 1.344s10.296-26.088 10.248-30.136c-.072-5.84-5.272-36.232-6.32-42.4-.936-5.536-5.216-7.864-8.376-8.84-5.952-3.088-16.064-7.04-26.504-5.296 0 0-16.896 3.368-22.36 12.8l-16.12 40.768a7.026 7.026 0 00-.392 3.784l3.064 21.272h12.56v-22.488l6.048-10.488.36 14.72s-12.328 38.304-14.648 61.328c-3.136 31.048-2.696 48.064-1.552 47.28l74.24 1.416s-5.68-45.728-6.976-57.368c-.936-8.448-3.256-18.552-5.72-27.696zM218.592 164l2.44-10.976.736 7.96-1.496 8a229.083 229.083 0 00-1.68-4.984z" fill="#407BFF"/><path d="M195.999 258.352c-.112 0-2.04-8.216-4.296-18.4-2.256-10.184-4-18.472-3.896-18.496.104-.024 2.04 8.208 4.304 18.4 2.264 10.192 3.976 18.472 3.888 18.496zm12.384-4.584a1.8 1.8 0 01-.232-.328l-.608-.976c-.52-.856-1.24-2.112-2.112-3.672-1.752-3.12-4.056-7.496-6.4-12.432a189.961 189.961 0 01-5.512-12.84 106.635 106.635 0 01-1.48-4c-.144-.432-.272-.8-.368-1.088a1.37 1.37 0 01-.104-.392c.079.11.141.232.184.36l.44 1.064 1.6 3.92c1.36 3.304 3.296 7.84 5.6 12.8 2.304 4.96 4.584 9.32 6.264 12.472l2 3.728.536 1.016c.152.24.208.36.192.368zm20.568-62.656l-.208-.104-.592-.344-2.256-1.344-8.296-5.024-.088-.056v-.096c1.064-6.144 2.456-14.224 4-23.2v.048a270.038 270.038 0 00-.384-5.664c-.448-5.84-.936-11.416-1.832-16.4-.112-.624-.256-1.224-.392-1.824-.136-.6-.328-1.168-.528-1.744a23.063 23.063 0 01-.752-3.448 26.136 26.136 0 01-.024-6.312 13.32 13.32 0 011.4-5.008 10.007 10.007 0 012.4-3.088 7.336 7.336 0 012.136-1.264c.201-.079.406-.143.616-.192a.804.804 0 01.216-.048 8.532 8.532 0 00-2.856 1.6 11.685 11.685 0 00-3.632 8 25.67 25.67 0 00.128 6.224c.177 1.147.445 2.279.8 3.384.192.56.36 1.16.536 1.76.176.6.296 1.224.408 1.848a164.095 164.095 0 011.848 16.472c.152 1.944.28 3.856.376 5.672v.048c-1.6 8.976-3.032 17.048-4.12 23.2l-.072-.152 8.208 5.144 2.216 1.408.568.376.176.128z" fill="#263238"/><path d="M182 165.024c-1.6-15.2-3.52-31.064-1.456-45.112L182 165.024z" fill="#455A64"/><path d="M180.544 119.912c.019.151.019.305 0 .456 0 .352-.072.8-.128 1.312a51.44 51.44 0 00-.192 2.08c-.056.816-.144 1.728-.192 2.752-.128 2.04-.168 4.472-.176 7.2-.008 2.728.12 5.672.304 8.8.36 6.232.936 11.864 1.312 15.936.184 2 .328 3.632.44 4.8 0 .536.072.968.096 1.32.023.151.023.305 0 .456a2.078 2.078 0 01-.088-.448c-.048-.344-.104-.8-.176-1.312-.144-1.192-.336-2.824-.576-4.8-.456-4.072-1.064-9.696-1.432-15.944-.184-3.12-.272-6.104-.272-8.8 0-2.696.096-5.152.272-7.2.056-1.024.16-1.944.248-2.752.088-.808.168-1.504.264-2.072.096-.568.152-.96.208-1.304.004-.164.034-.325.088-.48zM168.48 152.8c.461.096.895.293 1.272.576a9.675 9.675 0 014.08 5.28c.173.437.252.906.232 1.376a12.965 12.965 0 00-5.6-7.2l.016-.032zm4.32-.048a7.55 7.55 0 011.928 7.128 20.33 20.33 0 00-.432-3.704 20.66 20.66 0 00-1.496-3.424zm42.119 9.92a6.098 6.098 0 01-1.056-.416l-2.84-1.216a135.329 135.329 0 00-9.512-3.6 126.242 126.242 0 00-9.776-2.824l-3-.728a6.231 6.231 0 01-1.088-.304c.378.01.753.058 1.12.144.72.12 1.76.32 3.04.6a96.018 96.018 0 019.832 2.72 98.084 98.084 0 019.504 3.752c1.192.536 2.144 1 2.792 1.336.345.146.675.326.984.536z" fill="#263238"/><path d="M211.934 190.199l-28.789-4.944-4.28 24.924 28.789 4.944 4.28-24.924z" fill="#072F54"/><path d="M200.18 186.621l-24.055-4.043-4.173 24.828 24.055 4.043 4.173-24.828z" fill="#072F54"/><path d="M185.599 184.168a76.094 76.094 0 01-5.664 5.392 73.531 73.531 0 01-5.944 5.08 72.641 72.641 0 015.664-5.392 71.875 71.875 0 015.944-5.08zm6.872 1.176c.08.08-4.368 4.472-9.928 9.808-5.56 5.336-10.144 9.6-10.224 9.52-.08-.08 4.368-4.48 9.936-9.816s10.136-9.6 10.216-9.512zm7.08 1.168c.08.08-4.936 5.016-11.2 11.024-6.264 6.008-11.408 10.808-11.488 10.72-.08-.088 4.936-5.016 11.2-11.024 6.264-6.008 11.408-10.832 11.488-10.72zm6.849 1.144c.08.08-4.8 5.024-11 11.04-6.2 6.016-11.2 10.824-11.288 10.736-.088-.088 4.84-5.024 11-11.04 6.16-6.016 11.176-10.816 11.288-10.736zm4.96 3.296c.08.088-4.456 4.568-10.128 10.008-5.672 5.44-10.336 9.784-10.4 9.696-.064-.088 4.456-4.56 10.128-10s10.32-9.784 10.4-9.704zm-1.656 9.848a80.924 80.924 0 01-5.896 5.656c-3.336 3.048-6.104 5.44-6.176 5.36a77.65 77.65 0 015.896-5.664 79.76 79.76 0 016.176-5.352z" fill="#FAFAFA"/><path d="M219.071 185.328l-4.048 10.168a5.467 5.467 0 00-4.312.96c-1.92 1.536-4.576 2.648-4.992 4.128-.264.952.456 1.68 1.992.912 1.536-.768 3.784-.624 4.456-.152.672.472-2.016 6.44-2.016 6.44l-6.976.672a2.471 2.471 0 00-1.672 1.04c-.344.528-.504 1.208.8 1.704l6.44.376-6.344.936s.12 1.496 1.072 1.688c.952.192 5.032-.472 5.032-.472a.99.99 0 00.11.387 1.008 1.008 0 001.01.533c1.928 0 4.52-1.784 4.52-1.784l4.232-5.2 3.2-7.272 5.472-10.224-7.976-4.84z" fill="#FFBE9D"/><path d="M214.6 206.464c.048.448-.024.901-.208 1.312a5.836 5.836 0 01-4.8 3.864 2.54 2.54 0 01-1.328-.08c0-.064.504-.048 1.28-.208a6.65 6.65 0 002.744-1.28 6.494 6.494 0 001.832-2.4c.32-.72.416-1.216.48-1.208zM213.215 212a5.38 5.38 0 01-4.968 1.8c0-.128 1.208-.128 2.576-.64s2.312-1.288 2.392-1.16z" fill="#EB996E"/><path d="M173.103 183.064l.248 4.376s4.104 3.416 4.432 4.616c.328 1.2.8 6.168.8 6.168s-.864.92-1.16.8c-.296-.12 3.944 4.968 3.4 6.232-.544 1.264-.624 1.432-1.408.84-.784-.592-6.288-7.28-6.288-7.28l.8 3.672s4.248 4.592 3.944 5.88c-.304 1.288-.92 1.336-.92 1.336s-1.368.656-2.016.384c-.648-.272-6.12-5.872-6.12-5.872l-3.016-14.008-1.944-7.16 9.248.016z" fill="#FFBE9D"/><path d="M169.928 198.56a9.311 9.311 0 00-.112 1.952 8.283 8.283 0 001.944 4.208c1.2 1.416 2.504 2.528 3.344 3.44.5.46.92 1.001 1.24 1.6-.048.04-.544-.536-1.448-1.368a40.882 40.882 0 01-3.456-3.384 7.767 7.767 0 01-1.912-4.448c-.031-.499.026-1 .168-1.48.112-.36.208-.528.232-.52zm3.072-5.656c0-.048.448.088 1.008.528a4.755 4.755 0 011.504 2.312c.392 1.195.867 2.36 1.424 3.488 0 0-.352-.272-.736-.864a9.83 9.83 0 01-1.088-2.496 5.16 5.16 0 00-1.304-2.216c-.472-.472-.84-.696-.808-.752z" fill="#EB996E"/><path d="M191.855 61.168a14.345 14.345 0 0110.4-5.096c5.6-.504 11.616.912 15.824 4.6 3.856 3.384 5.736 8.616 5.968 13.744.088 1.808-.592 3.488-1.224 5.184a9.599 9.599 0 01-4.448 4.464c-1.664.712-2.288.12-3.552-1.184a8.013 8.013 0 01-1.536-2.912c-1.6-4.392-3.504-8.8-6.512-12.36-3.008-3.56-7.296-6.32-12-6.544" fill="#072F54"/><path d="M188.903 70.96a11.21 11.21 0 012.952-9.792 14.574 14.574 0 017-3.696c3.495-.953 7.21-.67 10.52.8 3.2 1.6 5.76 4.8 5.944 8.36.08 1.6-.296 3.304.144 4.872a3.52 3.52 0 01.304 2.056 1.691 1.691 0 01-1.512 1.04c-.65.005-1.29-.16-1.856-.48a20.243 20.243 0 01-5.16-4.112" fill="#263238"/><path d="M188.8 72.688c.576-5.032 4.248-11.048 9.248-10.256l15.496 4.8A2.959 2.959 0 01216 70.4l-3.664 37.776-4.152 4.448a7.827 7.827 0 01-10.57.876 7.825 7.825 0 01-2.358-3.036 3.43 3.43 0 01-.28-.928 5.812 5.812 0 01-.08-.8 24.778 24.778 0 01.2-5.2c.12-3.064.184-4.32.184-4.288 0 .032-6.4-1.408-7.288-9.888-.448-4.24.12-11.088.808-16.672z" fill="#FFBE9D"/><path d="M190.943 78.448a1.069 1.069 0 00.984 1.144 1.03 1.03 0 001.037-.523c.066-.12.108-.252.123-.389a1.089 1.089 0 00-.984-1.144 1.024 1.024 0 00-1.16.912zm-.888-2.12c.128.152.976-.408 2.136-.344 1.16.064 1.984.688 2.12.552.136-.136-.064-.32-.416-.616a3.007 3.007 0 00-1.688-.616 2.825 2.825 0 00-1.704.456c-.376.24-.512.504-.448.568zm12.297 3.152a1.078 1.078 0 00.984 1.144 1.037 1.037 0 001.042-.522c.067-.12.11-.253.126-.39a1.09 1.09 0 00-.984-1.144 1.041 1.041 0 00-1.168.912zm-.897-2.336c.128.152.976-.416 2.144-.352 1.168.064 1.976.696 2.112.56.136-.136-.056-.32-.416-.616a2.997 2.997 0 00-1.68-.616 2.842 2.842 0 00-1.712.456c-.368.224-.504.504-.448.568zm-4.656 8.392a7.568 7.568 0 00-1.864-.44c-.296-.048-.576-.12-.616-.328a1.547 1.547 0 01.248-.864l.992-2.216c1.384-3.144 2.4-5.744 2.28-5.8-.12-.056-1.352 2.456-2.736 5.6l-.96 2.224a1.7 1.7 0 00-.216 1.16.737.737 0 00.464.456c.161.051.328.084.496.096.63.118 1.273.156 1.912.112z" fill="#263238"/><path d="M195.272 99.2a21.4 21.4 0 0011.424-2.4s-3.136 5.68-11.52 4.448l.096-2.048zm1.863-10.84a2.107 2.107 0 011.92-.68 1.906 1.906 0 011.28.8 1.213 1.213 0 010 1.392 1.415 1.415 0 01-1.544.304 4.323 4.323 0 01-1.44-.968 1.24 1.24 0 01-.312-.36.386.386 0 010-.432" fill="#EB996E"/><path d="M200.167 86.52c-.184 0-.256 1.24-1.384 2.072-1.128.832-2.456.632-2.472.8-.016.168.28.256.848.304a3.144 3.144 0 002.064-.6 2.744 2.744 0 001.08-1.744c.072-.52-.048-.84-.136-.832zm1.28-12.92c.096.32 1.264.232 2.616.472 1.352.24 2.4.664 2.632.392.088-.136-.088-.44-.512-.8a4.448 4.448 0 00-1.928-.8 4.361 4.361 0 00-2.072.136c-.512.24-.776.472-.736.6zm-10.783-2.328c.184.272 1 0 1.968.08s1.76.272 1.968 0c.088-.128 0-.4-.368-.664a2.739 2.739 0 00-1.6-.52 2.814 2.814 0 00-1.6.448c-.328.256-.456.52-.368.656z" fill="#263238"/><path d="M212.872 84.336c0-.632.84-2.064 1.464-2.128 1.664-.176 4.632.112 4.44 4.312-.264 5.736-5.968 4.288-5.968 4.128 0-.16-.056-4.152.064-6.312z" fill="#FFBE9D"/><path d="M214.656 88.552s.096.072.264.16c.233.109.498.126.744.048a2.469 2.469 0 001.248-2.168 3.218 3.218 0 00-.216-1.44 1.141 1.141 0 00-.712-.8.521.521 0 00-.608.24c-.08.16-.048.28-.08.288-.032.008-.12-.104-.064-.336a.644.644 0 01.24-.352.8.8 0 01.56-.12 1.404 1.404 0 011.008.936c.217.504.31 1.053.272 1.6-.088 1.152-.728 2.208-1.6 2.4a1.056 1.056 0 01-.904-.192c-.144-.128-.168-.256-.152-.264z" fill="#EB996E"/><path d="M197.271 61.4a7.844 7.844 0 004.88 6.4c1.4.536 3.12.8 3.888 2.072.768 1.272.136 3.12.856 4.48 1 1.88 4.072 2.008 4.8 4 .304.88.04 1.88.368 2.752a2.658 2.658 0 003.072 1.456 4.283 4.283 0 002.68-2.4c.482-1.143.777-2.356.872-3.592a20.497 20.497 0 00-.08-7.264c-1.2-4.96-7.752-12.176-12.856-12.184" fill="#263238"/><path d="M206.904 59.624a15.603 15.603 0 00-5.064 1.088 15.766 15.766 0 00-4.24 3.016c.23-.471.547-.895.936-1.248a10.062 10.062 0 016.784-3.008 3.866 3.866 0 011.584.152zm-6.376-.712a9.533 9.533 0 00-2.128 1.968 9.216 9.216 0 00-1.08 2.696c-.056 0-.128-.344-.056-.896a4.757 4.757 0 012.4-3.496c.504-.256.848-.312.864-.272z" fill="#455A64"/><path d="M217.306 103.01l-43.686-7.609-1.945 11.168 43.686 7.609 1.945-11.168z" fill="#072F54"/><path opacity=".3" d="M217.302 103.002l-31.407-5.47-1.946 11.168 31.408 5.47 1.945-11.168z" fill="#000"/><path d="M229.702 116.674l-44.356-7.725-5.862 33.653 44.357 7.726 5.861-33.654z" fill="#072F54"/><path d="M207.526 112.815l-44.356-7.726-5.861 33.653 44.356 7.726 5.861-33.653z" fill="#072F54"/><path opacity=".3" d="M207.526 112.815l-44.356-7.726-5.861 33.653 44.356 7.726 5.861-33.653z" fill="#fff"/><path d="M189.776 109.72c-.192.361-.42.701-.68 1.016a7.726 7.726 0 01-2.456 2.256 4.494 4.494 0 01-2.288.488 8.412 8.412 0 01-2.592-.616c-.872-.328-1.752-.744-2.688-1.088a6.805 6.805 0 00-2.944-.536c-1.003.11-1.96.48-2.776 1.072-.8.544-1.6 1.136-2.4 1.6a8.596 8.596 0 01-4.84 1.008 8.347 8.347 0 01-3.2-.904 6.29 6.29 0 01-.8-.472c-.168-.128-.248-.192-.24-.208.008-.016.376.216 1.08.536a9.101 9.101 0 003.16.76 8.505 8.505 0 004.624-1.056c.8-.44 1.552-1.04 2.4-1.6a6.164 6.164 0 012.968-1.144 7.198 7.198 0 013.12.568c.952.36 1.832.8 2.68 1.112a8.211 8.211 0 002.48.632 4.313 4.313 0 002.136-.408 8.26 8.26 0 002.464-2.096c.238-.328.503-.636.792-.92zm22.655 4a3.445 3.445 0 00-2.2.24 6.408 6.408 0 00-2.088 1.6c-.696.76-1.344 1.768-2.28 2.728a5.456 5.456 0 01-3.936 1.736 15.138 15.138 0 01-4.896-.872 12.803 12.803 0 00-5.272-.76 6.322 6.322 0 00-2.584 1.008 22.94 22.94 0 00-2.32 1.8 17.48 17.48 0 01-2.4 1.792 8.65 8.65 0 01-2.768 1 15.57 15.57 0 01-5.496-.128c-1.72-.304-3.32-.728-4.8-1.016a18.23 18.23 0 00-4.232-.4 8.705 8.705 0 00-5.6 2.168 7.417 7.417 0 00-1.328 1.816.869.869 0 01.048-.144c0-.088.08-.232.168-.408.263-.509.6-.975 1-1.384a8.696 8.696 0 015.712-2.344 18.3 18.3 0 014.312.36c1.528.272 3.136.688 4.8.976 1.767.348 3.581.383 5.36.104a8.33 8.33 0 002.632-.96 17.063 17.063 0 002.352-1.744 22.742 22.742 0 012.4-1.84 6.836 6.836 0 012.752-1.064c1.85-.123 3.704.15 5.44.8 1.541.559 3.162.862 4.8.896a5.507 5.507 0 001.992-.48 5.368 5.368 0 001.6-1.152c.92-.912 1.6-1.904 2.32-2.672a6.35 6.35 0 012.2-1.6 3.252 3.252 0 011.68-.256c.222.027.436.094.632.2zm16.888 3.936s-.288 0-.8.144a4.426 4.426 0 00-1.976 1.192 18.464 18.464 0 00-2.232 2.992 13.578 13.578 0 01-3.2 3.816 5.214 5.214 0 01-2.776.96 10.957 10.957 0 01-3.152-.368c-1.064-.24-2.144-.552-3.272-.704a7.074 7.074 0 00-3.424.296c-2.28.8-4.2 2.544-6.224 4.248a18.358 18.358 0 01-3.376 2.304 7.734 7.734 0 01-4.12.944 8.588 8.588 0 01-3.912-1.6 12.465 12.465 0 00-3.52-1.816 4.801 4.801 0 00-1.88-.08 5.99 5.99 0 00-1.752.632 16.446 16.446 0 00-2.968 2.192 25.983 25.983 0 01-2.784 2.256 15.42 15.42 0 01-3.016 1.6 15.405 15.405 0 01-14.248-1.504 11.698 11.698 0 01-2.448-2.072s.224.184.632.536c.603.509 1.239.977 1.904 1.4a15.355 15.355 0 0014.032 1.32 14.928 14.928 0 002.936-1.544 26.65 26.65 0 002.744-2.24 16.46 16.46 0 013.032-2.256 6.04 6.04 0 011.872-.672 5.027 5.027 0 012.04.08 12.797 12.797 0 013.648 1.856 8.194 8.194 0 003.728 1.52 7.367 7.367 0 003.896-.896 18.135 18.135 0 003.296-2.248c2.016-1.688 4-3.488 6.36-4.304a7.642 7.642 0 013.608-.296c1.16.168 2.24.488 3.296.736.992.277 2.019.406 3.048.384a4.978 4.978 0 002.632-.88 13.616 13.616 0 003.2-3.704 17.318 17.318 0 012.256-3 4.384 4.384 0 012.072-1.168c.279-.059.564-.078.848-.056zm-4.12 18.624a1.38 1.38 0 01-.44-.08l-1.24-.288a14.25 14.25 0 00-4.616-.432 6.347 6.347 0 00-2.944 1.048 13.557 13.557 0 00-2.632 2.544 15.234 15.234 0 01-2.96 2.912 8.48 8.48 0 01-4.256 1.344c-3.112.184-5.92-.8-8.408-1.544a17.606 17.606 0 00-6.784-.992 8.21 8.21 0 00-4.288 1.6 11.22 11.22 0 00-1.224 1.184 4.454 4.454 0 011.12-1.312 8.163 8.163 0 014.36-1.744 17.508 17.508 0 016.92.92c2.512.696 5.28 1.68 8.272 1.496a8.142 8.142 0 004.064-1.272 15.119 15.119 0 002.896-2.816 13.643 13.643 0 012.728-2.584 6.693 6.693 0 013.112-1.064 13.67 13.67 0 014.68.568l1.224.368c.142.039.281.087.416.144z" fill="#FAFAFA"/><path opacity=".3" d="M229.702 116.673l-22.179-3.863-5.861 33.654 22.178 3.862 5.862-33.653z" fill="#000"/><path d="M181.416 142.872c-.12 0 1.008-7.568 2.52-16.864 1.512-9.296 2.816-16.8 2.928-16.8.112 0-1.016 7.568-2.52 16.864-1.504 9.296-2.816 16.816-2.928 16.8zm32.495 5.864c-.112 0 1.112-7.6 2.736-16.928 1.624-9.328 3.032-16.888 3.152-16.864.12.024-1.112 7.6-2.744 16.928-1.632 9.328-3.032 16.88-3.144 16.864z" fill="#263238"/><path d="M226.296 136.232c0 .112-15.088-2.4-33.64-5.648-18.552-3.248-33.6-5.944-33.6-6.056 0-.112 15.08 2.4 33.648 5.648 18.568 3.248 33.608 5.944 33.592 6.056zm-39.672-26.992a1.42 1.42 0 01-1.28-.248 10.127 10.127 0 01-2.304-2.752 75.21 75.21 0 01-4.4-7.2 3.675 3.675 0 01-.488-1.656 1.794 1.794 0 01.888-1.6 1.36 1.36 0 01.984-.096c.293.089.565.236.8.432.429.367.827.769 1.192 1.2a19.797 19.797 0 014 7.4c.337 1.149.559 2.328.664 3.52.04.424.048.752.048.976.012.112.012.224 0 .336a31.565 31.565 0 00-.976-4.744 20.263 20.263 0 00-2.208-4.744 19.93 19.93 0 00-1.856-2.472c-.348-.41-.728-.793-1.136-1.144a1.272 1.272 0 00-1.352-.296 1.41 1.41 0 00-.664 1.24c.025.52.176 1.024.44 1.472a76.115 76.115 0 001.504 2.728c.992 1.72 1.944 3.2 2.768 4.496a11.018 11.018 0 002.152 2.776c.359.25.787.382 1.224.376z" fill="#263238"/><path d="M186.912 108.608c.059-.335.156-.662.288-.976a18.94 18.94 0 011.12-2.544 21.96 21.96 0 013.895-5.28c.304-.35.685-.623 1.112-.8a1.073 1.073 0 011.376.536c.156.474.122.99-.096 1.44-.18.403-.397.789-.648 1.152a21.603 21.603 0 01-4.4 4.864 18.782 18.782 0 01-2.287 1.6 4.413 4.413 0 01-.904.464c-.048-.072 1.232-.8 3-2.28a22.513 22.513 0 002.839-2.912c.507-.621.977-1.27 1.408-1.944.237-.34.44-.702.608-1.08.172-.348.206-.748.096-1.12a.654.654 0 00-.856-.312 2.529 2.529 0 00-.96.672 22.92 22.92 0 00-3.919 5.136c-1.144 2.032-1.6 3.416-1.672 3.384z" fill="#263238"/><path d="M183.737 148.902l-31.143-4.538-3.928 26.955 31.143 4.538 3.928-26.955z" fill="#072F54"/><path d="M170.989 147.043l-26.124-3.807-3.928 26.964 26.124 3.806 3.928-26.963z" fill="#072F54"/><path d="M155.199 144.736c.08.08-2.616 2.752-6.008 5.952s-6.224 5.736-6.304 5.656c-.08-.08 2.616-2.752 6.016-5.96s6.176-5.728 6.296-5.648zm7.417 1.104c.08.088-4.632 4.936-10.528 10.848-5.896 5.912-10.744 10.632-10.824 10.512-.08-.12 4.632-4.936 10.528-10.84 5.896-5.904 10.736-10.6 10.824-10.52zm7.68 1.104c.08.08-5.232 5.536-11.864 12.176-6.632 6.64-12.072 12-12.16 11.888-.088-.112 5.232-5.528 11.864-12.176 6.632-6.648 12.08-11.968 12.16-11.888zm7.408 1.056c.08.08-5.136 5.536-11.656 12.184-6.52 6.648-11.872 12-11.952 11.904-.08-.096 5.136-5.536 11.656-12.192 6.52-6.656 11.848-11.96 11.952-11.896zm5.496 3.472c.088.08-4.72 5.032-10.728 11.048s-10.944 10.84-11.032 10.76c-.088-.08 4.728-5.032 10.736-11.056 6.008-6.024 10.92-10.832 11.024-10.752zm-1.601 10.728c.08.08-2.728 2.88-6.264 6.248-3.536 3.368-6.44 6.032-6.536 5.952-.096-.08 2.72-2.88 6.256-6.256 3.536-3.376 6.488-6.032 6.544-5.944z" fill="#FAFAFA"/><path opacity=".5" d="M183.737 148.906l-12.746-1.858-3.928 26.964 12.745 1.857 3.929-26.963z" fill="#000"/><path d="M157.874 144.455l-1.474-.208-3.814 26.975 1.473.208 3.815-26.975zm19.824 3.564l-.823-.12-3.929 26.963.824.12 3.928-26.963z" fill="#263238"/><path d="M181.853 161.841l-38.87-5.664-.158 1.085 38.87 5.663.158-1.084zM161.808 144.8a3.079 3.079 0 01-.648-.584 13.762 13.762 0 01-1.48-1.848 16.136 16.136 0 01-1.648-3.128 12.345 12.345 0 01-.616-2.016A1.74 1.74 0 01157.6 136a1.012 1.012 0 011.232-.392c.382.147.723.386.992.696.256.28.504.56.72.848.422.564.794 1.163 1.112 1.792a11.377 11.377 0 011.04 3.384c.117.795.136 1.601.056 2.4a2.816 2.816 0 01-.168.856 19.13 19.13 0 00-.176-3.2 11.874 11.874 0 00-1.096-3.264 13.102 13.102 0 00-1.088-1.712 4.243 4.243 0 00-1.528-1.4.597.597 0 00-.744.216 1.43 1.43 0 00-.12.928c.141.659.333 1.307.576 1.936.41 1.08.922 2.12 1.528 3.104 1.04 1.656 1.928 2.528 1.872 2.608z" fill="#263238"/><path d="M162.496 144.8c-.017-.269.01-.539.08-.8a11.02 11.02 0 01.608-2.152c.412-1.035.95-2.016 1.6-2.92.385-.533.81-1.036 1.272-1.504.247-.263.515-.507.8-.728a.7.7 0 01.352-.128.493.493 0 01.392.184c.12.179.195.385.216.6a6.475 6.475 0 01-.68 4 9.449 9.449 0 01-2.048 2.632c-.552.5-1.143.955-1.768 1.36-.218.17-.461.305-.72.4-.04-.064.952-.688 2.28-1.976a9.48 9.48 0 001.912-2.584 6.247 6.247 0 00.608-3.784.993.993 0 00-.12-.408c-.04 0-.072-.048-.2 0-.252.208-.492.43-.72.664-.449.453-.866.937-1.248 1.448a13.881 13.881 0 00-1.6 2.808c-.784 1.696-.936 2.888-1.016 2.888zm-.097 1.4s.184-.192.584-.472c.4-.28.992-.656 1.752-1.072a23.696 23.696 0 012.768-1.272 9.603 9.603 0 011.736-.536 3.89 3.89 0 012 .096l.192.064-.056.184a2.557 2.557 0 01-1.36 1.512 10.77 10.77 0 01-1.688.68 13.76 13.76 0 01-3.008.608 12.83 12.83 0 01-2.056 0 2.052 2.052 0 01-.744-.12c0-.072 1.072 0 2.768-.2a15.065 15.065 0 002.92-.68c.55-.184 1.085-.408 1.6-.672a2.209 2.209 0 001.152-1.256l.128.248a5.335 5.335 0 00-3.472.408c-.94.343-1.861.735-2.76 1.176-1.536.784-2.456 1.36-2.456 1.304zm-.968-.264a2.58 2.58 0 01-.76-.12 18.086 18.086 0 01-2.024-.616c-.98-.364-1.932-.8-2.848-1.304l-.8-.456a4.116 4.116 0 01-.8-.568 1.076 1.076 0 01-.312-1.096 1.185 1.185 0 01.936-.68 6.176 6.176 0 013.848.512 5.922 5.922 0 012.4 2.072c.403.594.691 1.259.848 1.96.082.258.106.531.072.8a8.44 8.44 0 00-1.16-2.56 5.898 5.898 0 00-2.304-1.896 6.022 6.022 0 00-3.6-.448.805.805 0 00-.64.408.707.707 0 00.216.672c.221.199.462.373.72.52.256.16.523.312.8.456.891.517 1.816.974 2.768 1.368 1.592.64 2.664.912 2.64.976z" fill="#263238"/><path d="M231.867 150.917l-38.201-6.366-5.509 33.064 38.201 6.366 5.509-33.064z" fill="#072F54"/><path d="M216.241 148.305l-32.047-5.339-5.509 33.064 32.046 5.339 5.51-33.064z" fill="#072F54"/><path d="M196.8 145.08c.072.088-3.32 3.288-7.584 7.144-4.264 3.856-7.776 6.912-7.856 6.824-.08-.088 3.32-3.28 7.576-7.136 4.256-3.856 7.8-6.912 7.864-6.832zm9.151 1.552c.08.08-5.856 5.92-13.256 13.04-7.4 7.12-13.464 12.8-13.544 12.736-.08-.064 5.856-5.92 13.256-13.04 7.4-7.12 13.464-12.816 13.544-12.736zm9.424 1.544c.08.08-6.608 6.648-14.928 14.656-8.32 8.008-15.144 14.4-15.2 14.352-.056-.048 6.6-6.648 14.928-14.656 8.328-8.008 15.12-14.432 15.2-14.352zm9.088 1.512c.08.088-6.496 6.656-14.68 14.672-8.184 8.016-14.888 14.456-14.968 14.4-.08-.056 6.488-6.648 14.68-14.672 8.192-8.024 14.888-14.488 14.968-14.4zm6.649 4.392c.08.08-5.968 6.032-13.512 13.28-7.544 7.248-13.728 13.072-13.808 12.992-.08-.08 5.968-6.032 13.52-13.288s13.72-13.072 13.8-12.984zm-2.184 13.12c.072.08-3.456 3.44-7.888 7.496-4.432 4.056-8.096 7.272-8.176 7.2-.08-.072 3.456-3.44 7.888-7.496 4.432-4.056 8.096-7.256 8.176-7.2z" fill="#FAFAFA"/><path opacity=".5" d="M231.865 150.913l-15.633-2.605-5.509 33.064 15.633 2.605 5.509-33.064z" fill="#000"/><path d="M199.324 145.496l-2.502-.417-5.509 33.064 2.501.417 5.51-33.064zm25.146 4.187l-2.028-.338-5.509 33.064 2.028.338 5.509-33.064z" fill="#263238"/><path d="M229.225 166.783l-47.679-7.944-.222 1.333 47.678 7.945.223-1.334z" fill="#263238"/><path d="M213.602 181.319l-53.118-8.689-1.353 8.274 53.118 8.689 1.353-8.274z" fill="#072F54"/><path opacity=".3" d="M202.426 179.491l-41.939-6.86-1.353 8.274 41.939 6.86 1.353-8.274z" fill="#fff"/><path d="M165.663 173.472c.06.395-.01.8-.2 1.152a3.902 3.902 0 01-4.744 2.248c-.704-.216-1.048-.528-1.016-.568.032-.04.416.152 1.088.288a4.002 4.002 0 004.408-2.096c.32-.6.4-1.032.464-1.024zm4.409 9.32a8.92 8.92 0 00-.408-1.6 3.893 3.893 0 00-2.837-2.407 3.896 3.896 0 00-3.563 1.071c-.372.4-.709.831-1.008 1.288a2.513 2.513 0 01.8-1.496 4.052 4.052 0 013.854-1.271 4.05 4.05 0 013.026 2.703c.238.539.286 1.142.136 1.712zm9.791-6.672a3.085 3.085 0 01-1.024 1.472 4.965 4.965 0 01-4.099 1.297 4.957 4.957 0 01-3.573-2.393 2.987 2.987 0 01-.56-1.704c.236.53.503 1.046.8 1.544a4.893 4.893 0 003.37 2.126 4.878 4.878 0 003.83-1.094c.443-.391.863-.808 1.256-1.248zm4.473 8.624c-.24-.484-.508-.954-.8-1.408a4.47 4.47 0 00-1.367-1.295 4.467 4.467 0 00-3.654-.439 4.447 4.447 0 00-1.635.934 13.45 13.45 0 00-1.08 1.184 2.673 2.673 0 01.88-1.4 4.525 4.525 0 015.666-.654c.581.37 1.07.867 1.43 1.454.358.466.555 1.036.56 1.624zm7.608-7.584c.049.498-.088.996-.384 1.4a3.28 3.28 0 01-5.888-.4 2.01 2.01 0 01-.184-1.448c.114.452.267.894.456 1.32.234.496.596.921 1.048 1.231a3.083 3.083 0 004.32-.863 8.98 8.98 0 00.632-1.24zm4.127 10.344a4.8 4.8 0 001.12-1.856 3.648 3.648 0 00-.12-2.28 3.31 3.31 0 00-2.024-1.824 3.277 3.277 0 00-2.72.232 3.564 3.564 0 00-1.472 1.744 4.732 4.732 0 00-.232 2.16 1.365 1.365 0 01-.2-.584 3.538 3.538 0 01.16-1.68 3.78 3.78 0 011.544-1.968 3.748 3.748 0 014.393.499c.388.357.695.792.903 1.277.303.807.32 1.694.048 2.512a3.472 3.472 0 01-.888 1.424 1.252 1.252 0 01-.512.344zm12.025-7.208s.136.12.208.416c.09.426.039.869-.144 1.264a2.615 2.615 0 01-1.352 1.312 4.25 4.25 0 01-2.28.248 5.298 5.298 0 01-2.152-.752 3.094 3.094 0 01-1.224-1.432 1.79 1.79 0 010-1.688c-.051.547.04 1.098.264 1.6.253.513.654.94 1.152 1.224a5.315 5.315 0 002.008.664 4.103 4.103 0 002.072-.184 2.356 2.356 0 001.24-1.096 2.407 2.407 0 00.208-1.576zm4.584 5.952c-.04.048-.4-.224-1.064-.464a4.167 4.167 0 00-4.8 1.44c-.424.56-.576.984-.64.96-.064-.024 0-.48.4-1.128a4.08 4.08 0 012.304-1.768 4.143 4.143 0 012.888.224c.648.328.944.704.912.736z" fill="#FAFAFA"/><path opacity=".4" d="M213.604 181.326l-11.179-1.829-1.354 8.274 11.18 1.829 1.353-8.274z" fill="#000"/><path d="M179.768 184.304a19.93 19.93 0 01.448-4c.147-1.359.434-2.699.856-4a20.076 20.076 0 01-.448 4 19.884 19.884 0 01-.856 4zm27.767 4.112a19.08 19.08 0 01.44-4 18.29 18.29 0 01.824-3.856 19.706 19.706 0 01-.44 4 19.185 19.185 0 01-.824 3.856z" fill="#263238"/><path d="M212.624 186.592c0 .112-11.928-1.744-26.6-4.144-14.672-2.4-26.56-4.432-26.544-4.552.016-.12 11.928 1.744 26.608 4.144 14.68 2.4 26.56 4.432 26.536 4.552zm-30.656-10.256a.95.95 0 01-.144-.288 5.727 5.727 0 01-.272-.888 7.53 7.53 0 010-3.392c.082-.373.191-.739.328-1.096.07-.203.169-.395.296-.568a.74.74 0 01.688-.312.843.843 0 01.608.472c.117.213.193.447.224.688.07.461.108.926.112 1.392a8.994 8.994 0 01-.448 2.984 2.026 2.026 0 01-.488.72 1.149 1.149 0 01-.872.296 2.684 2.684 0 01-1.472-.896 19.915 19.915 0 01-3.648-4.976 1.716 1.716 0 01-.208-.744.88.88 0 01.352-.744.736.736 0 01.8 0c.2.126.373.289.512.48a19.13 19.13 0 011.36 1.912 17.61 17.61 0 011.52 3.032c.171.378.295.775.368 1.184a10 10 0 01-.52-1.128 20.422 20.422 0 00-2.976-4.784c-.24-.304-.608-.592-.848-.4-.24.192-.24.632 0 1.016a20.088 20.088 0 003.6 4.856c.301.394.727.676 1.208.8a1.015 1.015 0 00.952-.752c.302-.913.451-1.87.44-2.832-.001-.45-.03-.898-.088-1.344-.048-.392-.248-.8-.52-.864-.272-.064-.512.312-.632.656-.145.336-.26.684-.344 1.04a7.998 7.998 0 00-.128 3.296c.112.76.28 1.168.24 1.184z" fill="#263238"/><path d="M320.232 278.336c-6.4-9.728-5.432-23.632 2.168-32.432 2.36-2.728 5.656-5.104 9.248-4.8 3.592.304 6.648 3.472 7.768 7s.728 7.328.072 10.968c-.92 5.088-2.464 10.296-5.992 14.08-3.528 3.784-8.696 7.648-13.264 5.184z" fill="#2D56B3"/><path d="M323.752 325.176a14.558 14.558 0 014.056-16.52c1.464-1.192 3.376-2.112 5.2-1.6 1.824.512 3.112 2.4 3.368 4.312a12.008 12.008 0 01-.96 5.656c-.936 2.536-2.2 5.08-4.36 6.712-2.16 1.632-5.192 3.16-7.304 1.472m-15.344-3.376a21.04 21.04 0 00-10.6-22.208c-2.4-1.256-5.408-2.008-7.856-.8-2.448 1.208-3.704 4.304-3.504 7.096.2 2.792 1.544 5.368 3.024 7.736 2.072 3.328 4.616 6.56 8.16 8.224 3.544 1.664 8.28 2.952 10.776-.064" fill="#072F54"/><path d="M309.512 298.504c3.048-9.832-2.12-21.744-10.728-27.384-2.672-1.752-6.048-2.968-9.04-1.832-2.992 1.136-4.8 4.568-4.904 7.84-.104 3.272 1.16 6.4 2.608 9.352 2.024 4.112 4.6 8.168 8.528 10.528 3.928 2.36 10.28 4.712 13.536 1.496z" fill="#2D56B3"/><path d="M315.632 346.544a1.953 1.953 0 01-.104-.472c-.048-.36-.12-.8-.2-1.368-.04-.304-.088-.64-.136-.992-.048-.352-.152-.752-.232-1.168-.16-.84-.32-1.8-.6-2.84-.12-.52-.256-1.072-.392-1.64-.136-.568-.336-1.144-.512-1.752-.328-1.216-.8-2.48-1.272-3.824a74.115 74.115 0 00-3.792-8.416 75.346 75.346 0 00-4.912-7.816c-.872-1.12-1.656-2.224-2.488-3.2l-1.184-1.4-1.144-1.232c-.712-.8-1.424-1.472-2.032-2.072l-.848-.8-.752-.664-1.032-.928a2.23 2.23 0 01-.336-.344c.139.081.271.174.392.28l1.08.872.8.64.872.8c.632.584 1.352 1.24 2.088 2.032l1.168 1.224 1.208 1.392c.848.944 1.648 2.048 2.528 3.2a69.798 69.798 0 014.976 7.84 71.346 71.346 0 013.784 8.48c.448 1.36.928 2.632 1.24 3.864.168.608.336 1.2.496 1.768.16.568.248 1.128.368 1.656.264 1.048.408 2.016.544 2.864.069.416.133.808.192 1.176 0 .36.072.696.104 1 .048.568.096 1.024.128 1.384.018.151.018.305 0 .456z" fill="#263238"/><path d="M315.408 348.312a.563.563 0 010-.192c0-.152 0-.344.04-.568.048-.536.12-1.264.2-2.184.048-.48.104-1.008.16-1.6.056-.592.056-1.208.088-1.888.056-1.344.184-2.88.136-4.584v-2.672c0-.928-.096-1.888-.144-2.888-.064-2-.336-4.12-.576-6.352a99.861 99.861 0 00-3.016-14.296 101.36 101.36 0 00-5.264-13.6c-1.016-2-1.944-3.928-2.984-5.64-.504-.864-.952-1.72-1.448-2.504l-1.448-2.24c-.888-1.456-1.832-2.672-2.608-3.776-.4-.544-.752-1.064-1.104-1.528l-.992-1.232c-.576-.728-1.024-1.304-1.36-1.72l-.344-.456a.793.793 0 01-.112-.168.688.688 0 01.144.136l.376.432 1.424 1.672 1.016 1.216c.36.456.728.968 1.136 1.512.8 1.088 1.768 2.296 2.672 3.744l1.472 2.24c.504.8.968 1.64 1.48 2.496 1.048 1.712 1.992 3.64 3.024 5.656a88.613 88.613 0 018.312 28.04c.232 2.24.496 4.376.544 6.4.04 1 .12 1.968.12 2.896v2.68c0 1.712-.12 3.248-.2 4.6-.04.68-.072 1.304-.128 1.888-.056.584-.128 1.096-.192 1.6-.112.92-.208 1.6-.28 2.176 0 .224-.056.416-.08.56a.928.928 0 01-.064.144z" fill="#263238"/><path d="M332 252.856s0 .064-.08.184-.168.304-.272.512c-.272.472-.632 1.12-1.088 1.936-.24.424-.52.88-.8 1.408l-.856 1.712-.976 1.96c-.336.704-.648 1.464-1 2.256-.352.792-.728 1.6-1.08 2.48-.352.88-.688 1.8-1.056 2.744-.176.472-.368.952-.552 1.44-.184.488-.336 1.008-.512 1.52-.344 1.024-.704 2.072-1.064 3.152a158.46 158.46 0 00-3.704 14.4c-1.08 5.176-1.784 10.136-2.32 14.672-.536 4.536-.8 8.64-.904 12.096-.088 1.72-.104 3.28-.112 4.656-.008 1.376 0 2.552 0 3.52v2.808a.88.88 0 010 .192.771.771 0 010-.192c0-.16 0-.344-.04-.576 0-.544-.056-1.288-.104-2.232a70.897 70.897 0 01-.08-3.52c0-1.376 0-2.936.048-4.672.064-3.456.376-7.568.8-12.128.424-4.56 1.248-9.528 2.296-14.704 1.048-5.176 2.4-10.04 3.744-14.4a216.7 216.7 0 001.088-3.2l.52-1.512.568-1.448c.379-.944.739-1.856 1.08-2.736.36-.872.752-1.688 1.104-2.48.352-.792.688-1.544 1.032-2.248.344-.704.696-1.344 1.008-1.96l.912-1.696c.28-.52.568-.968.8-1.392.488-.8.872-1.44 1.16-1.904l.304-.488a.695.695 0 01.136-.16zm-2.193 59.712a8.912 8.912 0 01-.68 1.184 68.114 68.114 0 00-1.848 3.2 55.105 55.105 0 00-2.399 4.952c-.8 1.896-1.6 4-2.336 6.312-.736 2.312-1.224 4.496-1.6 6.528-.376 2.032-.648 3.888-.8 5.448-.152 1.56-.248 2.824-.28 3.704-.007.455-.044.91-.112 1.36a7.919 7.919 0 01-.056-1.368c0-.88 0-2.152.16-3.728s.352-3.432.712-5.488a60.95 60.95 0 011.6-6.584 63.798 63.798 0 012.399-6.344c.864-1.896 1.712-3.568 2.504-4.928a62.26 62.26 0 011.976-3.2 8.91 8.91 0 01.76-1.048z" fill="#263238"/><path d="M303.136 342.168h27.944l-3.376 28.544h-21.088l-3.48-28.544z" fill="#455A64"/><path d="M304.152 367.632l2.376 3.08h21.176l2.44-2.984-25.992-.096z" fill="#263238"/><path d="M329.992 350.56c0 .12-5.8.208-12.952.208s-12.952-.088-12.952-.208 5.8-.208 12.952-.208 12.952.096 12.952.208zm0 1.904c0 .112-5.8.208-12.952.208s-12.952-.096-12.952-.208c0-.112 5.8-.208 12.952-.208s12.952.088 12.952.208zm-.352 1.84c0 .112-5.6.208-12.496.208-6.896 0-12.496-.096-12.496-.208 0-.112 5.6-.208 12.496-.208 6.896 0 12.496.088 12.496.208z" fill="#FAFAFA"/></svg>