<svg width="200" height="85" fill="none" xmlns="http://www.w3.org/2000/svg"><path d="M55.954 40.232c0-5.227-4.791-12.743-14.05-12.743-8.386 0-14.05 7.19-14.05 14.595 0 8.822 6.1 15.138 16.555 15.138h19.822c-4.683 7.297-12.85 11.98-22.218 11.98-14.81 0-26.792-12.089-26.792-26.9 0-14.813 11.981-26.902 26.792-26.902 14.812 0 26.901 12.09 26.901 26.901 0 2.941-.544 5.772-1.306 8.387H37.657v-2.942l10.564-.325c5.337-.22 7.733-2.94 7.733-7.189zm5.056 29.007v-1.837h-.657v-.375h1.758v.375h-.655v1.837h-.446zm1.383 0v-2.212h.669l.4 1.509.397-1.509h.67v2.212h-.414v-1.741l-.44 1.74h-.43l-.437-1.74v1.74h-.415zM91.63 28.752c0-1.533-1.406-3.737-4.121-3.737-2.46 0-4.12 2.107-4.12 4.28 0 2.587 1.788 4.44 4.855 4.44h5.813c-1.373 2.14-3.77 3.513-6.516 3.513-4.344 0-7.857-3.545-7.857-7.89 0-4.343 3.513-7.889 7.857-7.889s7.89 3.546 7.89 7.89c0 .862-.16 1.692-.384 2.46h-8.784v-.863l3.099-.097c1.565-.063 2.267-.862 2.267-2.107z" fill="#072F54"/><path d="M101.977 26.356l3.003-4.408h4.152l-5.111 7.124 5.526 7.697h-4.408l-3.289-4.791-3.322 4.791h-4.153l5.43-7.506-5.27-7.315h4.408l3.034 4.408zm12.137-1.501c1.087-2.3 3.035-3.322 5.015-3.322 3.578 0 6.835 3.034 6.835 7.825 0 4.792-3.257 7.826-6.835 7.826-1.98 0-3.928-1.022-5.015-3.322-.063-.127-.158-.095-.158.033v8.975h-3.834V21.95h3.833v2.874c0 .128.096.16.159.033v-.001zm3.961 9.168c2.236 0 4.184-1.948 4.184-4.664 0-2.715-1.948-4.662-4.184-4.662-2.204 0-4.185 1.947-4.185 4.663 0 2.715 1.981 4.663 4.185 4.663zm21.08-5.271c0-1.533-1.406-3.737-4.121-3.737-2.459 0-4.12 2.107-4.12 4.28 0 2.587 1.788 4.44 4.855 4.44h5.813c-1.373 2.14-3.769 3.513-6.515 3.513-4.345 0-7.858-3.545-7.858-7.89 0-4.343 3.513-7.889 7.858-7.889 4.343 0 7.889 3.546 7.889 7.89 0 .862-.16 1.692-.384 2.46h-8.784v-.863l3.099-.097c1.565-.063 2.267-.862 2.267-2.107h.001zm16.895 5.11c-1.086 2.3-3.035 3.322-5.015 3.322-3.577 0-6.835-3.034-6.835-7.825 0-4.792 3.258-7.826 6.835-7.826 1.98 0 3.929 1.022 5.015 3.322.063.127.16.096.16-.032v-9.295h3.833v21.24h-3.833v-2.875c0-.127-.096-.159-.16-.032v.001zm-3.961-9.169c-2.236 0-4.184 1.948-4.184 4.664 0 2.715 1.948 4.664 4.184 4.664 2.204 0 4.185-1.949 4.185-4.664s-1.981-4.664-4.185-4.664zm10.38-7.057c0-1.213 1.022-2.235 2.236-2.235 1.213 0 2.236 1.022 2.236 2.235 0 1.214-1.023 2.236-2.236 2.236-1.214 0-2.236-1.022-2.236-2.236zm4.152 19.133h-3.833V21.948h3.833v14.821zm13.766-2.907c-1.086 2.3-3.035 3.322-5.015 3.322-3.576 0-6.835-3.034-6.835-7.825 0-4.792 3.259-7.826 6.835-7.826 1.98 0 3.929 1.022 5.015 3.322.064.127.161.096.161-.032v-2.875h3.832v14.82h-3.833v-2.875c0-.127-.096-.159-.16-.032v.001zm-3.961-9.169c-2.236 0-4.184 1.948-4.184 4.664 0 2.715 1.948 4.664 4.184 4.664 2.205 0 4.185-1.949 4.185-4.664s-1.98-4.664-4.185-4.664zm-83.53 35.423c0-.127-.097-.16-.161-.032-1.085 2.3-3.002 3.322-4.95 3.322-3.546 0-6.772-3.003-6.772-7.762 0-4.76 3.226-7.76 6.772-7.76 1.948 0 3.865 1.02 4.95 3.32.064.128.16.096.16-.033v-2.874h3.834v13.959c0 4.12-2.844 7.314-7.763 7.314-2.747 0-5.142-.959-6.898-2.588l2.3-2.491c1.532 1.214 2.745 1.853 4.535 1.853 2.81 0 3.992-1.98 3.992-4.44v-1.788zm-4.057-9.07c-2.204 0-4.12 1.916-4.12 4.599 0 2.683 1.916 4.599 4.12 4.599 2.171 0 4.12-1.916 4.12-4.6 0-2.681-1.949-4.598-4.12-4.598zm14.468-2.748v3.226c0 .065.063.097.095 0 .512-2.65 1.662-3.641 3.642-3.641h.352v4.025h-1.725c-1.565 0-2.364 1.213-2.364 2.938v8.274h-3.832V48.298h3.832zm12.233-.478c4.312 0 7.857 3.545 7.857 7.889 0 4.343-3.546 7.89-7.857 7.89-4.375 0-7.921-3.547-7.921-7.89 0-4.344 3.546-7.89 7.921-7.89zm-.033 3.48c-2.299 0-4.184 1.917-4.184 4.409 0 2.491 1.885 4.408 4.184 4.408 2.3 0 4.185-1.917 4.185-4.408 0-2.492-1.885-4.409-4.185-4.409zm15.843 12.298c-3.737 0-6.133-2.268-6.133-5.59V48.3h3.833v9.421c0 1.47.958 2.429 2.395 2.429 1.31 0 2.301-.991 2.301-2.397V48.3h3.832v9.709c0 3.322-2.587 5.59-6.228 5.59zm12.871-12.393c1.086-2.3 3.035-3.322 5.015-3.322 3.576 0 6.835 3.035 6.835 7.826 0 4.791-3.259 7.826-6.835 7.826-1.98 0-3.929-1.023-5.015-3.323-.064-.127-.161-.095-.161.033v8.976h-3.832V48.299h3.833v2.875c0 .127.096.159.16.032zm3.961 9.169c2.236 0 4.184-1.948 4.184-4.664 0-2.715-1.948-4.664-4.184-4.664-2.205 0-4.185 1.949-4.185 4.664 0 2.716 1.98 4.664 4.185 4.664zm10.714-9.867v-1.838h-.657v-.375h1.759v.375h-.656v1.838h-.446zm1.384 0v-2.213h.669l.401 1.51.397-1.51h.67v2.213h-.415v-1.741l-.439 1.741h-.43l-.438-1.741v1.741h-.415z" fill="#072F54"/></svg>